<?xml version="1.0" encoding="utf-8"?>
<!-- Generator: Adobe Illustrator 21.1.0, SVG Export Plug-In . SVG Version: 6.00 Build 0)  -->
<svg version="1.1" id="Layer_1" xmlns="http://www.w3.org/2000/svg" xmlns:xlink="http://www.w3.org/1999/xlink" x="0px" y="0px"
	 viewBox="0 0 165 231" style="enable-background:new 0 0 165 231;" xml:space="preserve">
<style type="text/css">
	.st0{fill:#7D7D7D;}
</style>
<g>
	<g>
		<path class="st0" d="M132.6,112V99.2c0-6.8-5.9-12.4-13.1-12.4H40.8c-7.2,0-13.1,5.5-13.1,12.4v56.9c0,6.8,5.9,12.4,13.1,12.4
			h78.7c7.2,0,13.1-5.5,13.1-12.4v-3.9h-17.2v-6.9h17.2V136h-17.2v-6.8h17.2v-10.3h-17.2V112H132.6z M84.7,134.3v8.6
			c0,2-2.1,3.6-4.6,3.6c-2.5,0-4.6-1.6-4.6-3.6v-8.6c-3.5-1.7-6-5.3-6-9.5c0-5.8,4.7-10.6,10.6-10.6c5.9,0,10.6,4.7,10.6,10.6
			C90.7,128.9,88.2,132.5,84.7,134.3z"/>
		<path class="st0" d="M52.8,69.4c0-11.4,9.2-20.6,20.6-20.6h13.3c11.4,0,20.6,9.2,20.6,20.6v14.5h14.6V65
			c0-15.6-12.6-28.3-28.3-28.3H66.4c-15.6,0-28.2,12.7-28.2,28.3v18.8h14.6V69.4z"/>
	</g>
	<g>
		<g>
			<path class="st0" d="M24.1,188.5V184c0-0.4,0.2-0.8,0.5-1.1c0.3-0.3,0.7-0.5,1.1-0.5c0.4,0,0.8,0.2,1.1,0.5
				c0.3,0.3,0.5,0.7,0.5,1.1v4.6l3.5-3c0.3-0.3,0.7-0.4,1.2-0.4c0.4,0,0.8,0.2,1.1,0.5c0.3,0.3,0.4,0.7,0.4,1.1c0,0.4-0.1,0.8-0.5,1
				l-4.9,4.2l4.8,4.2c0.3,0.3,0.5,0.6,0.5,1c0,0.4-0.1,0.8-0.4,1.1c-0.3,0.3-0.6,0.5-1.1,0.5c-0.4,0-0.8-0.1-1.1-0.4l-3.5-3v4.6
				c0,0.4-0.2,0.8-0.5,1.1c-0.3,0.3-0.7,0.5-1.1,0.5c-0.4,0-0.8-0.2-1.1-0.5c-0.3-0.3-0.5-0.7-0.5-1.1v-4.5l-3.5,3
				c-0.3,0.3-0.7,0.4-1.1,0.4c-0.4,0-0.8-0.2-1.1-0.5c-0.3-0.3-0.4-0.7-0.4-1.1c0-0.4,0.2-0.8,0.5-1l4.9-4.2l-4.9-4.2
				c-0.3-0.3-0.5-0.6-0.5-1.1c0-0.4,0.2-0.8,0.5-1.1c0.3-0.3,0.7-0.5,1.1-0.5c0.4,0,0.8,0.1,1.1,0.4L24.1,188.5z"/>
			<path class="st0" d="M51.9,188.5V184c0-0.4,0.2-0.8,0.5-1.1c0.3-0.3,0.7-0.5,1.1-0.5c0.4,0,0.8,0.2,1.1,0.5
				c0.3,0.3,0.5,0.7,0.5,1.1v4.6l3.5-3c0.3-0.3,0.7-0.4,1.2-0.4c0.4,0,0.8,0.2,1.1,0.5c0.3,0.3,0.4,0.7,0.4,1.1c0,0.4-0.2,0.8-0.5,1
				l-4.9,4.2l4.8,4.2c0.3,0.3,0.5,0.6,0.5,1c0,0.4-0.1,0.8-0.4,1.1c-0.3,0.3-0.6,0.5-1.1,0.5c-0.4,0-0.8-0.1-1.1-0.4l-3.5-3v4.6
				c0,0.4-0.2,0.8-0.5,1.1c-0.3,0.3-0.7,0.5-1.1,0.5c-0.4,0-0.8-0.2-1.1-0.5c-0.3-0.3-0.5-0.7-0.5-1.1v-4.5l-3.5,3
				c-0.3,0.3-0.7,0.4-1.1,0.4c-0.4,0-0.8-0.2-1.1-0.5c-0.3-0.3-0.4-0.7-0.4-1.1c0-0.4,0.2-0.8,0.5-1l4.9-4.2l-4.9-4.2
				c-0.3-0.3-0.5-0.6-0.5-1.1c0-0.4,0.2-0.8,0.5-1.1c0.3-0.3,0.7-0.5,1.1-0.5c0.4,0,0.8,0.1,1.1,0.4L51.9,188.5z"/>
			<path class="st0" d="M79.8,188.5V184c0-0.4,0.2-0.8,0.5-1.1c0.3-0.3,0.7-0.5,1.1-0.5c0.4,0,0.8,0.2,1.1,0.5
				c0.3,0.3,0.5,0.7,0.5,1.1v4.6l3.5-3c0.3-0.3,0.7-0.4,1.2-0.4c0.4,0,0.8,0.2,1.1,0.5c0.3,0.3,0.4,0.7,0.4,1.1c0,0.4-0.2,0.8-0.5,1
				l-4.9,4.2l4.8,4.2c0.3,0.3,0.5,0.6,0.5,1c0,0.4-0.1,0.8-0.4,1.1c-0.3,0.3-0.6,0.5-1.1,0.5c-0.4,0-0.8-0.1-1.1-0.4l-3.5-3v4.6
				c0,0.4-0.2,0.8-0.5,1.1c-0.3,0.3-0.7,0.5-1.1,0.5c-0.4,0-0.8-0.2-1.1-0.5c-0.3-0.3-0.5-0.7-0.5-1.1v-4.5l-3.5,3
				c-0.3,0.3-0.7,0.4-1.1,0.4c-0.4,0-0.8-0.2-1.1-0.5c-0.3-0.3-0.4-0.7-0.4-1.1c0-0.4,0.2-0.8,0.5-1l4.9-4.2l-4.9-4.2
				c-0.3-0.3-0.5-0.6-0.5-1.1c0-0.4,0.2-0.8,0.5-1.1c0.3-0.3,0.7-0.5,1.1-0.5c0.4,0,0.8,0.1,1.1,0.4L79.8,188.5z"/>
			<path class="st0" d="M107.7,188.5V184c0-0.4,0.2-0.8,0.5-1.1c0.3-0.3,0.7-0.5,1.1-0.5c0.4,0,0.8,0.2,1.1,0.5
				c0.3,0.3,0.5,0.7,0.5,1.1v4.6l3.5-3c0.3-0.3,0.7-0.4,1.2-0.4s0.8,0.2,1.1,0.5c0.3,0.3,0.4,0.7,0.4,1.1c0,0.4-0.2,0.8-0.5,1
				l-4.9,4.2l4.8,4.2c0.3,0.3,0.5,0.6,0.5,1c0,0.4-0.1,0.8-0.4,1.1c-0.3,0.3-0.6,0.5-1.1,0.5c-0.4,0-0.8-0.1-1.1-0.4l-3.5-3v4.6
				c0,0.4-0.1,0.8-0.5,1.1c-0.3,0.3-0.7,0.5-1.1,0.5c-0.4,0-0.8-0.2-1.1-0.5c-0.3-0.3-0.5-0.7-0.5-1.1v-4.5l-3.5,3
				c-0.3,0.3-0.7,0.4-1.1,0.4c-0.4,0-0.8-0.2-1.1-0.5c-0.3-0.3-0.4-0.7-0.4-1.1c0-0.4,0.2-0.8,0.5-1l4.9-4.2l-4.9-4.2
				c-0.3-0.3-0.5-0.6-0.5-1.1c0-0.4,0.2-0.8,0.5-1.1c0.3-0.3,0.7-0.5,1.1-0.5c0.4,0,0.8,0.1,1.1,0.4L107.7,188.5z"/>
		</g>
		<path class="st0" d="M37.3,208.4H14.6v-3.1h22.7V208.4z"/>
		<path class="st0" d="M64.9,208.4H42.2v-3.1h22.7V208.4z"/>
		<path class="st0" d="M92.5,208.4H69.8v-3.1h22.7V208.4z"/>
		<path class="st0" d="M120.1,208.4H97.3v-3.1h22.7V208.4z"/>
		<path class="st0" d="M147.6,208.4h-22.7v-3.1h22.7V208.4z"/>
	</g>
</g>
</svg>
