<?xml version="1.0" encoding="utf-8"?>
<!-- Generator: Adobe Illustrator 21.1.0, SVG Export Plug-In . SVG Version: 6.00 Build 0)  -->
<svg version="1.1" id="Layer_1" xmlns="http://www.w3.org/2000/svg" xmlns:xlink="http://www.w3.org/1999/xlink" x="0px" y="0px"
	 viewBox="0 0 37.1 53.6" style="enable-background:new 0 0 37.1 53.6;" xml:space="preserve">
<style type="text/css">
	.st0{opacity:0.98;}
  
  .icone-inteiro{
  fill: #fff;
  }
  
</style>

<path class="icone-inteiro" d="M27.1,10.7c-2.4-2.4-5.4-3.6-8.8-3.6s-6.4,1.2-8.8,3.6c-2.4,2.4-3.7,5.3-3.7,8.7c0,2.1,1,5.5,3.1,10.3
	c2.1,4.8,4.2,9.2,6.2,13.1c2.1,4,3.1,5.9,3.1,5.8c0.3-0.6,0.8-1.4,1.3-2.4c0.6-1,1.6-3,3-5.8c1.4-2.8,2.7-5.5,3.8-7.8
	c1.1-2.4,2.1-4.8,3-7.4c0.9-2.5,1.4-4.5,1.4-5.8C30.7,16,29.5,13.1,27.1,10.7z M20.9,22c-0.8,0.8-1.7,1.1-2.7,1.1
	c-1.1,0-2-0.4-2.7-1.1c-0.8-0.8-1.1-1.7-1.1-2.7c0-1.1,0.4-1.9,1.1-2.7c0.8-0.7,1.7-1.1,2.7-1.1c1.1,0,2,0.4,2.7,1.1
	c0.8,0.7,1.1,1.6,1.1,2.7C22,20.3,21.7,21.2,20.9,22z"/>

</svg>
