<?xml version="1.0" encoding="utf-8"?>
<!-- Generator: Adobe Illustrator 21.1.0, SVG Export Plug-In . SVG Version: 6.00 Build 0)  -->
<svg version="1.1" id="Layer_1" xmlns="http://www.w3.org/2000/svg" xmlns:xlink="http://www.w3.org/1999/xlink" x="0px" y="0px"
	 viewBox="0 0 71.1 86.6" style="enable-background:new 0 0 71.1 86.6;" xml:space="preserve">
<style type="text/css">
  
  .icone-inteiro{
  fill: #fff;
  }
  
  
</style>
<g class="icone-inteiro">
	<path class="st0" d="M12.3,62.7c0,1,0.8,1.7,1.7,1.7h29.6c1,0,1.7-0.8,1.7-1.7c0-1-0.8-1.7-1.7-1.7H14C13.1,61,12.3,61.8,12.3,62.7
		z"/>
	<path class="st0" d="M14,53.8h13.1c1,0,1.7-0.8,1.7-1.7c0-1-0.8-1.7-1.7-1.7H14c-1,0-1.7,0.8-1.7,1.7C12.3,53,13.1,53.8,14,53.8z"
		/>
	<path class="st0" d="M14,43.1h13.1c1,0,1.7-0.8,1.7-1.7c0-1-0.8-1.7-1.7-1.7H14c-1,0-1.7,0.8-1.7,1.7S13.1,43.1,14,43.1z"/>
	<path class="st0" d="M14,32.4h24.6c1,0,1.7-0.8,1.7-1.7c0-1-0.8-1.7-1.7-1.7H14c-1,0-1.7,0.8-1.7,1.7C12.3,31.6,13.1,32.4,14,32.4z
		"/>
	<path class="st0" d="M24.6,21.7h19c1,0,1.7-0.8,1.7-1.7s-0.8-1.7-1.7-1.7h-19c-1,0-1.7,0.8-1.7,1.7C22.8,21,23.6,21.7,24.6,21.7z"
		/>
	<path class="st0" d="M65.4,18.9c-2.2-2.2-6.1-2.1-8.2,0l-4.7,4.7v-8.2c0-2.8-2.2-5-5-5H19c-1.3,0-2.6,0.5-3.5,1.5l-9.1,9
		C5.5,21.7,5,23,5,24.3v43.1c0,2.8,2.2,5,5,5h37.6c2.8,0,5-2.2,5-5V39.9l12.9-12.9C67.7,24.8,67.7,21.1,65.4,18.9z M15.9,16.2v5.1
		h-5.1L15.9,16.2z M49.1,67.5c0,0.8-0.7,1.5-1.5,1.5H10c-0.8,0-1.5-0.7-1.5-1.5V24.7h9.2c1,0,1.7-0.8,1.7-1.7v-9.2h28.2
		c0.8,0,1.5,0.7,1.5,1.5V27L30.9,45.2c-0.3,0.3-0.5,0.8-0.5,1.2v5.8c0,1,0.8,1.7,1.7,1.7h5.8c0.5,0,0.9-0.2,1.2-0.5l10-10L49.1,67.5
		L49.1,67.5z M63,24.6L37.2,50.4h-3.3v-3.3l25.8-25.8c0.9-0.9,2.4-0.9,3.3,0C63.9,22.2,63.9,23.7,63,24.6z"/>
</g>
</svg>
