<?xml version="1.0" encoding="utf-8"?>
<!-- Generator: Adobe Illustrator 21.1.0, SVG Export Plug-In . SVG Version: 6.00 Build 0)  -->
<svg version="1.1" id="Layer_1" xmlns="http://www.w3.org/2000/svg" xmlns:xlink="http://www.w3.org/1999/xlink" x="0px" y="0px"
	 viewBox="0 0 89.7 89.7" style="enable-background:new 0 0 89.7 89.7;" xml:space="preserve">
<style type="text/css">

  .icone-inteiro{
  fill: #ffd800;
  }  
  
</style>
<g class="icone-inteiro">
	<g>
		<g>
			<path class="st0" d="M73.7,50.6c-1.1,0-2.1,0.2-3.1,0.5l-1.3-2.6c1.4-0.5,2.8-0.8,4.4-0.8c1.7,0,3.4,0.3,5,1
				c0.6,0.3,1.4,0,1.7-0.7c0.3-0.6,0-1.4-0.7-1.7c-1.9-0.8-3.9-1.2-6-1.2c-1.9,0-3.8,0.4-5.5,1.1l-4.8-9.5c0.2,0,0.5,0.1,0.7,0.1
				h2.7c0.7,0,1.3-0.6,1.3-1.3V30c0-0.7-0.6-1.3-1.3-1.3h-2.7c-1.6,0-2.9,0.9-3.6,2.2l-1.4-2.7c-0.7-1.4-2.1-2.2-3.6-2.2h-2.4
				c-0.7,0-1.3,0.6-1.3,1.3c0,0.7,0.6,1.3,1.3,1.3h2.4c0.6,0,1.1,0.3,1.3,0.8l3.3,6.6l-0.6,0.3c-1.4,0.7-2.2,2.1-2.2,3.6v13.4h-11
				c-2.3,0-4.2-1.9-4.2-4.2v-5.6h0.1c2.2,0,4-1.8,4-4c0-2.2-1.8-4-4-4H31.3c-1.1,0-2.1,0.4-2.8,1.2v-19c0-1.5-1.2-2.7-2.7-2.7H6.7
				C5.2,15,4,16.2,4,17.7v19.2c0,1.5,1.2,2.7,2.7,2.7h2.9c-0.1,0.3-0.1,0.5-0.1,0.8c0,1.8,1.5,3.3,3.3,3.3h6.9
				c-0.9,0.6-1.6,1.1-2.2,1.7c-2.8,2.6-4.4,5.6-4.8,7.6c-0.3,1.1,0,2.2,0.7,3.1c0.7,0.9,1.7,1.3,2.8,1.3c0,0,0,0,0,0l0.7,0
				c-0.3,0.9-0.4,1.9-0.4,2.8c0,5.2,4.3,9.5,9.5,9.5c4.8,0,8.8-3.6,9.4-8.2H60c0.7,0,1.3-0.6,1.3-1.3c0-0.8,0.1-1.7,0.2-2.5
				c0.7-3.4,2.7-6.2,5.5-8l1.3,2.6c-2.5,1.7-4.1,4.6-4.1,7.8c0,5.2,4.3,9.5,9.5,9.5s9.5-4.3,9.5-9.5S78.9,50.6,73.7,50.6z
				 M31.3,38.1h10.9c0.8,0,1.5,0.7,1.5,1.5c0,0.8-0.7,1.5-1.5,1.5H31.3c-0.8,0-1.5-0.7-1.5-1.5C29.8,38.7,30.5,38.1,31.3,38.1z
				 M6.6,17.7C6.6,17.6,6.6,17.6,6.6,17.7l19.2-0.1c0,0,0.1,0,0.1,0.1v2.8H6.6V17.7z M6.7,36.9C6.6,36.9,6.6,36.9,6.7,36.9L6.6,23
				h19.3v13.8c0,0,0,0.1-0.1,0.1H6.7z M12.8,41c-0.4,0-0.8-0.3-0.8-0.8c0-0.2,0.1-0.4,0.2-0.6c0.1-0.1,0.2-0.2,0.4-0.2l14.7,0
				c0,0,0,0.1,0,0.1c0,0.5,0.1,1,0.3,1.5H12.8z M16.1,54.7L16.1,54.7c-0.4,0-0.7-0.2-0.8-0.4c-0.2-0.2-0.3-0.6-0.2-0.9
				c0.9-4,5.9-9.9,13.4-9.9c5.9,0,8.1,5.6,8.1,9.1c0,1-0.5,1.9-1.5,1.9L16.1,54.7z M27.3,60.1c0,0.8-0.7,1.5-1.5,1.5
				s-1.5-0.7-1.5-1.5s0.7-1.5,1.5-1.5S27.3,59.3,27.3,60.1z M25.8,67c-3.8,0-6.9-3.1-6.9-6.9c0-1,0.2-1.9,0.6-2.8l3.5,0
				c-0.7,0.7-1.2,1.7-1.2,2.8c0,2.2,1.8,4,4,4s4-1.8,4-4c0-1.1-0.5-2.1-1.2-2.9l3.5,0c0.4,0.9,0.6,1.9,0.6,2.9
				C32.7,63.9,29.6,67,25.8,67z M59,57.1c-0.1,0.6-0.2,1.1-0.2,1.7H35.2c-0.1-0.5-0.2-1.1-0.4-1.6l0.2,0c2.3,0,4.1-1.9,4.1-4.5
				c0-2.8-0.9-5.6-2.5-7.7c-0.4-0.5-0.8-1-1.3-1.4h4.2v5.6c0,3.7,3,6.8,6.8,6.8h12.3c0.3,0,0.5-0.1,0.8-0.3
				C59.3,56.1,59.1,56.6,59,57.1z M64.1,31.3h1.5v2.9h-1.5c-0.8,0-1.5-0.7-1.5-1.5C62.7,31.9,63.3,31.3,64.1,31.3z M59.9,54.2V39.9
				c0-0.6,0.3-1.1,0.8-1.3l0.6-0.3l4.5,9.1C63.3,48.9,61.2,51.3,59.9,54.2z M73.7,67c-3.8,0-6.9-3.1-6.9-6.9s3.1-6.9,6.9-6.9
				c3.8,0,6.9,3.1,6.9,6.9S77.5,67,73.7,67z"/>
			<path class="st0" d="M73.7,56.1c-2.2,0-4,1.8-4,4c0,2.2,1.8,4,4,4c2.2,0,4-1.8,4-4C77.7,57.9,75.9,56.1,73.7,56.1z M73.7,61.5
				c-0.8,0-1.5-0.7-1.5-1.5s0.7-1.5,1.5-1.5s1.5,0.7,1.5,1.5S74.5,61.5,73.7,61.5z"/>
		</g>
	</g>
</g>
</svg>
