<?xml version="1.0" encoding="utf-8"?>
<!-- Generator: Adobe Illustrator 21.1.0, SVG Export Plug-In . SVG Version: 6.00 Build 0)  -->
<svg version="1.1" id="Layer_1" xmlns="http://www.w3.org/2000/svg" xmlns:xlink="http://www.w3.org/1999/xlink" x="0px" y="0px"
	 viewBox="0 0 89.7 89.7" style="enable-background:new 0 0 89.7 89.7;" xml:space="preserve">
<style type="text/css">

    .icone-inteiro{
      fill: #fff;
    }
  
  
</style>
<g class="icone-inteiro">
	<g>
		<path class="st0" d="M74.4,5H29.4c-2.6,0-4.7,2.1-4.7,4.7v10.4C16.3,22.5,10,30.4,10,39.7c0,9.3,6.3,17.2,14.8,19.6v18
			c0,2.6,2.1,4.7,4.7,4.7h36.7c0.4,0,0.9-0.2,1.2-0.5l11.2-11.2c0.3-0.3,0.5-0.7,0.5-1.2V9.7C79,7.1,76.9,5,74.4,5L74.4,5z
			 M29.4,8.3h44.9c0.8,0,1.4,0.6,1.4,1.4v5H28.1v-5C28.1,8.9,28.7,8.3,29.4,8.3L29.4,8.3z M13.3,39.7c0-9.4,7.7-17.1,17.1-17.1
			c9.4,0,17.1,7.7,17.1,17.1s-7.7,17.1-17.1,17.1C21,56.8,13.3,49.1,13.3,39.7L13.3,39.7z M28.1,77.2V59.9c0.8,0.1,1.5,0.1,2.3,0.1
			c6.1,0,11.6-2.7,15.4-7h10.1c0.9,0,1.6-0.7,1.6-1.6c0-0.9-0.7-1.6-1.6-1.6h-7.7c1.4-2.5,2.3-5.3,2.6-8.3h5.1
			c0.9,0,1.6-0.7,1.6-1.6c0-0.9-0.7-1.6-1.6-1.6h-5.1c-0.2-3-1.1-5.8-2.5-8.3h7.6c0.9,0,1.6-0.7,1.6-1.6c0-0.9-0.7-1.6-1.6-1.6h-9.8
			c-3.7-4.4-9.3-7.2-15.6-7.2h0c-0.8,0-1.6,0-2.3,0.1v-1.5h47.7v49.5h-6.6c-2.6,0-4.7,2.1-4.7,4.7v6.6H29.4
			C28.7,78.6,28.1,78,28.1,77.2L28.1,77.2z M67.8,76.3V72c0-0.8,0.6-1.4,1.4-1.4h4.2L67.8,76.3z M67.8,76.3"/>
		<path class="st0" d="M62.2,29.8h5.5c0.9,0,1.6-0.7,1.6-1.6c0-0.9-0.7-1.6-1.6-1.6h-5.5c-0.9,0-1.6,0.7-1.6,1.6
			C60.6,29.1,61.3,29.8,62.2,29.8L62.2,29.8z M62.2,29.8"/>
		<path class="st0" d="M62.2,41.5h5.5c0.9,0,1.6-0.7,1.6-1.6c0-0.9-0.7-1.6-1.6-1.6h-5.5c-0.9,0-1.6,0.7-1.6,1.6
			C60.6,40.7,61.3,41.5,62.2,41.5L62.2,41.5z M62.2,41.5"/>
		<path class="st0" d="M62.2,53.1h5.5c0.9,0,1.6-0.7,1.6-1.6c0-0.9-0.7-1.6-1.6-1.6h-5.5c-0.9,0-1.6,0.7-1.6,1.6
			C60.6,52.3,61.3,53.1,62.2,53.1L62.2,53.1z M62.2,53.1"/>
		<path class="st0" d="M67.7,64.7c0.9,0,1.6-0.7,1.6-1.6c0-0.9-0.7-1.6-1.6-1.6H52.3c-0.9,0-1.6,0.7-1.6,1.6c0,0.9,0.7,1.6,1.6,1.6
			H67.7z M67.7,64.7"/>
		<path class="st0" d="M43.1,31.4l-2-2c-0.5-0.5-1.3-0.8-2-0.8c-0.8,0-1.5,0.3-2,0.8L26.6,39.9L23.7,37c-0.5-0.5-1.3-0.8-2-0.8
			c-0.8,0-1.5,0.3-2,0.8l-2,2c-1.1,1.1-1.1,2.9,0,4l6.9,6.9c0.5,0.5,1.3,0.8,2,0.8c0.8,0,1.5-0.3,2-0.8l14.5-14.5
			C44.2,34.3,44.2,32.5,43.1,31.4L43.1,31.4z M26.6,47.4L20.3,41l1.4-1.4l3.8,3.8c0.6,0.6,1.7,0.6,2.3,0L39.1,32l1.4,1.4L26.6,47.4z
			 M26.6,47.4"/>
	</g>
</g>
</svg>
