<?xml version="1.0" encoding="utf-8"?>
<!-- Generator: Adobe Illustrator 21.1.0, SVG Export Plug-In . SVG Version: 6.00 Build 0)  -->
<svg version="1.1" id="Layer_1" xmlns="http://www.w3.org/2000/svg" xmlns:xlink="http://www.w3.org/1999/xlink" x="0px" y="0px"
	 viewBox="0 0 89.7 89.7" style="enable-background:new 0 0 89.7 89.7;" xml:space="preserve">
<style type="text/css">
	.st0{fill:#FFFFFF;}
</style>
<g>
	<path class="st0" d="M28.4,23H22c-0.5,0-0.9,1.5-0.9,3.3c0,1.8,0.4,3.3,0.9,3.3h6.4c0.5,0,0.9-1.5,0.9-3.3
		C29.3,24.5,28.9,23,28.4,23L28.4,23z M24.2,23"/>
	<path class="st0" d="M52.1,38.5"/>
	<path class="st0" d="M61.3,65.1l-3.4,2.3v8.1H15.4V16.7h42.4v12.9l6.5-11.3v-4.9c0-1.8-1.5-3.3-3.3-3.3H12.2
		c-1.8,0-3.3,1.5-3.3,3.3v65.2c0,1.8,1.5,3.3,3.3,3.3h48.9c1.8,0,3.3-1.5,3.3-3.3v-18l-1.6,2.7C62.4,64.1,61.9,64.7,61.3,65.1
		L61.3,65.1z M61.3,65.1"/>
	<path class="st0" d="M80.5,25.3c-0.1-0.3-0.8-2.9-4.9-5.3c-4.2-2.4-6.8-1.7-7.1-1.6c-0.4,0.1-0.7,0.4-0.9,0.7L47.3,54.5
		c-0.1,0.2-0.2,0.5-0.2,0.7l-0.8,12.7c0,0.6,0.3,1.2,0.8,1.5c0.5,0.3,1.2,0.3,1.7-0.1l10.7-7c0.2-0.1,0.4-0.3,0.5-0.5l20.4-35.3
		C80.6,26.1,80.6,25.7,80.5,25.3L80.5,25.3z M52.9,63.7c-0.5-0.4-1.2-0.8-1.8-1.2c-0.7-0.4-1.3-0.7-2-1l0.2-3.8
		c0.9,0.1,2.1,0.5,3.7,1.4c1.6,0.9,2.5,1.8,3,2.5L52.9,63.7z M52.9,63.7"/>
	<path class="st0" d="M49.3,23H32.9c-1.2,0-2.2,1.5-2.2,3.3c0,1.8,1,3.3,2.2,3.3h16.4c1.2,0,2.2-1.5,2.2-3.3
		C51.5,24.5,50.5,23,49.3,23L49.3,23z M38.5,23"/>
	<path class="st0" d="M28.7,33.8h-6.4c-0.5,0-0.9,1.5-0.9,3.3c0,1.8,0.4,3.3,0.9,3.3h6.4c0.5,0,0.9-1.5,0.9-3.3
		C29.6,35.2,29.2,33.8,28.7,33.8L28.7,33.8z M24.5,33.8"/>
	<path class="st0" d="M49.6,33.8H33.2C32,33.8,31,35.2,31,37c0,1.8,1,3.3,2.2,3.3h16.4c1.2,0,2.2-1.5,2.2-3.3
		C51.8,35.2,50.8,33.8,49.6,33.8L49.6,33.8z M38.8,33.8"/>
	<path class="st0" d="M28.7,44.6h-6.4c-0.5,0-0.9,1.5-0.9,3.3c0,1.8,0.4,3.3,0.9,3.3h6.4c0.5,0,0.9-1.5,0.9-3.3
		C29.6,46,29.2,44.6,28.7,44.6L28.7,44.6z M24.5,44.6"/>
	<path class="st0" d="M49.6,44.6H33.2C32,44.6,31,46,31,47.8c0,1.8,1,3.3,2.2,3.3h16.4c1.2,0,2.2-1.5,2.2-3.3
		C51.8,46,50.8,44.6,49.6,44.6L49.6,44.6z M38.8,44.6"/>
	<path class="st0" d="M28.7,56.3h-6.4c-0.5,0-0.9,1.5-0.9,3.3c0,1.8,0.4,3.3,0.9,3.3h6.4c0.5,0,0.9-1.5,0.9-3.3
		C29.6,57.8,29.2,56.3,28.7,56.3L28.7,56.3z M24.5,56.3"/>
	<path class="st0" d="M46.6,56.3H32.8c-1,0-1.8,1.5-1.8,3.3c0,1.8,0.8,3.3,1.8,3.3h13.7c1,0,1.8-1.5,1.8-3.3
		C48.4,57.8,47.6,56.3,46.6,56.3L46.6,56.3z M37.6,56.3"/>
</g>
</svg>
