<?xml version="1.0" encoding="utf-8"?>
<!-- Generator: Adobe Illustrator 21.1.0, SVG Export Plug-In . SVG Version: 6.00 Build 0)  -->
<svg version="1.1" id="Layer_1" xmlns="http://www.w3.org/2000/svg" xmlns:xlink="http://www.w3.org/1999/xlink" x="0px" y="0px"
	 viewBox="0 0 89.7 89.7" style="enable-background:new 0 0 89.7 89.7;" xml:space="preserve">
<style type="text/css">

    .icone-inteiro{
  fill: #c4c4c4;
  }
  
</style>
<g class="icone-inteiro">
	<path class="st0" d="M71.6,14.9c-6.9-6.4-15.5-9.5-25.7-9.5C35.1,5.4,26,9,18.4,16.2C10.8,23.4,7,32.4,7,43.2
		c0,10.3,3.6,19.2,10.8,26.6C25.1,77.3,34.8,81,47,81c7.4,0,14.6-1.5,21.7-4.6c2.3-1,3.4-3.6,2.5-6c-1-2.4-3.7-3.5-6.1-2.5
		C59,70.6,52.9,72,47,72c-9.4,0-16.7-2.9-21.8-8.6c-5.1-5.7-7.7-12.4-7.7-20.1c0-8.4,2.8-15.3,8.3-20.9c5.5-5.6,12.3-8.4,20.3-8.4
		c7.4,0,13.6,2.3,18.7,6.9c5.1,4.6,7.6,10.4,7.6,17.4c0,4.8-1.2,8.8-3.5,11.9c-2.3,3.2-4.8,4.8-7.3,4.8c-1.4,0-2-0.7-2-2.2
		c0-1.2,0.1-2.6,0.3-4.2L62.8,25h-9.9l-0.6,2.3c-2.5-2.1-5.3-3.1-8.3-3.1c-4.8,0-8.8,1.9-12.2,5.7c-3.4,3.8-5.1,8.7-5.1,14.6
		c0,5.8,1.5,10.5,4.5,14.1c3,3.6,6.6,5.4,10.9,5.4c3.8,0,7-1.6,9.7-4.8c2,3,5,4.6,8.9,4.6c5.8,0,10.8-2.5,15-7.6
		c4.2-5,6.3-11.1,6.3-18.2C82,29,78.6,21.2,71.6,14.9L71.6,14.9z M48.9,50.4c-1.7,2.3-3.8,3.5-6.3,3.5c-1.7,0-3-0.9-4-2.6
		c-1-1.7-1.5-3.9-1.5-6.5c0-3.2,0.7-5.7,2.1-7.7c1.4-1.9,3.2-2.9,5.3-2.9c1.8,0,3.4,0.7,4.9,2.2c1.4,1.5,2.1,3.4,2.1,5.9
		C51.5,45.4,50.6,48,48.9,50.4L48.9,50.4z M48.9,50.4"/>
</g>
</svg>
