<?xml version="1.0" encoding="utf-8"?>
<!-- Generator: Adobe Illustrator 21.1.0, SVG Export Plug-In . SVG Version: 6.00 Build 0)  -->
<svg version="1.1" id="Layer_1" xmlns="http://www.w3.org/2000/svg" xmlns:xlink="http://www.w3.org/1999/xlink" x="0px" y="0px"
	 viewBox="0 0 70.1 89.7" style="enable-background:new 0 0 70.1 89.7;" xml:space="preserve">
<style type="text/css">

    .icone-inteiro{
  fill: #c4c4c4;
  }

</style>
<g class="icone-inteiro">
	<g>
		<path class="st0" d="M34.6,44.6c8.6,0,15.5-8.4,15.5-18.8c0-10.4-2.3-18.8-15.5-18.8c-13.2,0-15.5,8.4-15.5,18.8
			C19.1,36.2,26,44.6,34.6,44.6L34.6,44.6z M34.6,44.6"/>
		<path class="st0" d="M63.8,72.6C63.5,54.5,61.2,49.3,43.1,46c0,0-2.5,3.2-8.5,3.2c-5.9,0-8.5-3.2-8.5-3.2
			C8.2,49.3,5.7,54.3,5.3,72c0,1.4,0,1.5,0,1.3c0,0.3,0,0.9,0,1.9c0,0,4.3,8.7,29.3,8.7c25,0,29.3-8.7,29.3-8.7c0-0.6,0-1.1,0-1.4
			C63.8,73.9,63.8,73.7,63.8,72.6L63.8,72.6z M63.8,72.6"/>
	</g>
</g>
</svg>
