<?xml version="1.0" encoding="utf-8"?>
<!-- Generator: Adobe Illustrator 16.0.0, SVG Export Plug-In . SVG Version: 6.00 Build 0)  -->
<!DOCTYPE svg PUBLIC "-//W3C//DTD SVG 1.1//EN" "http://www.w3.org/Graphics/SVG/1.1/DTD/svg11.dtd">
<svg version="1.1" id="Layer_1" xmlns="http://www.w3.org/2000/svg" xmlns:xlink="http://www.w3.org/1999/xlink" x="0px" y="0px"
	 width="568.5px" height="529px" viewBox="43.5 128.5 568.5 529" enable-background="new 43.5 128.5 568.5 529"
	 xml:space="preserve">
  
<style type="text/css">

    .icone-inteiro{
    fill: #ed0000;
    }

</style>
  
  
  
<g class="icone-inteiro">
	<path  d="M331.581,213.991c-97.675,0-176.745,79.193-176.745,176.746c0,97.552,79.192,176.746,176.745,176.746
		s176.745-79.193,176.745-176.746C508.326,293.184,429.256,213.991,331.581,213.991z M331.581,524.887
		c-73.93,0-134.15-60.221-134.15-134.15c0-73.93,60.221-134.028,134.15-134.028s134.15,60.221,134.15,134.15
		S405.511,524.887,331.581,524.887z"/>
	<path  d="M331.581,292.572c-54.101,0-98.164,44.064-98.164,98.165s44.063,98.165,98.164,98.165
		s98.165-44.063,98.165-98.165S385.682,292.572,331.581,292.572z"/>
	<path  d="M578.829,405.67V190.857c0-2.081-1.347-3.917-3.305-4.529c-1.959-0.612-4.162,0-5.386,1.714
		c-26.806,35.251-41.371,78.336-41.371,122.645v78.581c0,9.058,7.344,16.279,16.279,16.279h6.854
		c-6.732,69.278-11.139,166.097-11.139,177.48c0,17.87,11.016,32.313,24.603,32.313c13.586,0,24.603-14.443,24.603-32.313
		C589.968,571.767,585.562,474.948,578.829,405.67z"/>
	<path  d="M135.496,205.178c-4.528,0-8.2,3.794-7.955,8.323l4.406,88.373c0,5.018-4.039,8.935-8.936,8.935
		c-5.019,0-8.936-4.039-8.936-8.935l-2.325-88.25c-0.122-4.651-3.917-8.446-8.568-8.446c-4.65,0-8.445,3.672-8.567,8.446
		l-2.203,88.25c0,5.018-4.04,8.935-8.936,8.935c-5.019,0-8.936-4.039-8.936-8.935l4.284-88.25c0.245-4.529-3.427-8.323-7.956-8.323
		c-4.161,0-7.711,3.305-7.956,7.466l-6.731,110.16c0,17.014,9.058,31.946,22.644,40.27c8.813,5.386,13.831,15.422,12.607,25.704
		C83.722,458.057,78.58,571.032,78.58,583.271c0,17.871,11.017,32.314,24.603,32.314c13.587,0,24.603-14.443,24.603-32.314
		c0-12.362-5.263-125.215-12.852-194.371c-1.102-10.282,3.794-20.318,12.607-25.704c13.586-8.201,22.644-23.134,22.644-40.27
		l-6.732-110.16C143.208,208.483,139.658,205.178,135.496,205.178z"/>
</g>
</svg>
