<?xml version="1.0" encoding="utf-8"?>
<!-- Generator: Adobe Illustrator 21.1.0, SVG Export Plug-In . SVG Version: 6.00 Build 0)  -->
<svg version="1.1" id="Layer_1" xmlns="http://www.w3.org/2000/svg" xmlns:xlink="http://www.w3.org/1999/xlink" x="0px" y="0px"
	 viewBox="0 0 165 231" style="enable-background:new 0 0 165 231;" xml:space="preserve">
<g>
	<path d="M126.2,19.1H41.5c-7,0-12.8,5.8-12.8,12.8v164.2c0,7,5.8,12.8,12.8,12.8h84.6c7,0,12.8-5.8,12.8-12.8V32
		C139,24.9,133.2,19.1,126.2,19.1L126.2,19.1z M70.3,28.4h27.1c0.8,0,1.6,0.7,1.6,1.6c0,0.8-0.7,1.5-1.6,1.5H70.3
		c-0.9,0-1.6-0.7-1.6-1.5C68.8,29.1,69.5,28.4,70.3,28.4L70.3,28.4z M83.9,202.6c-3.6,0-6.4-2.9-6.4-6.4c0-3.5,2.9-6.4,6.4-6.4
		c3.5,0,6.4,2.9,6.4,6.4C90.3,199.7,87.4,202.6,83.9,202.6L83.9,202.6z M130.1,185.2H37.6V39.5h92.4V185.2z M83.9,123.2
		c12.3,0,23.8,4.8,32.5,13.5c1.2,1.3,1.2,3.3,0,4.6c-1.3,1.3-3.3,1.3-4.6,0c-7.5-7.5-17.4-11.6-27.9-11.6
		c-10.6,0-20.5,4.1-27.9,11.6c-1.2,1.3-3.3,1.3-4.6,0c-1.2-1.2-1.2-3.3,0-4.6C60.1,128,71.6,123.2,83.9,123.2L83.9,123.2z
		 M76.6,89.7c0,4.3-3.5,7.8-7.8,7.8c-4.3,0-7.8-3.5-7.8-7.8c0-4.3,3.5-7.8,7.8-7.8C73.1,81.9,76.6,85.4,76.6,89.7L76.6,89.7z
		 M106.7,89.7c0,4.3-3.5,7.8-7.8,7.8c-4.3,0-7.8-3.5-7.8-7.8c0-4.3,3.5-7.8,7.8-7.8C103.2,81.9,106.7,85.4,106.7,89.7L106.7,89.7z
		 M106.7,89.7"/>
</g>
</svg>
