<?xml version="1.0" encoding="utf-8"?>
<!-- Generator: Adobe Illustrator 21.1.0, SVG Export Plug-In . SVG Version: 6.00 Build 0)  -->
<svg version="1.1" id="Layer_1" xmlns="http://www.w3.org/2000/svg" xmlns:xlink="http://www.w3.org/1999/xlink" x="0px" y="0px"
	 viewBox="0 0 71.1 86.6" style="enable-background:new 0 0 71.1 86.6;" xml:space="preserve">
<style>
  .st0 {
    clip-path: url(#SVGID_2_);
}

.icone-inteiro {
    fill: #fff;
}

</style>
<g class="icone-inteiro">
	<g>
		<defs>
			<rect id="SVGID_1_" x="8.3" y="6.9" width="57" height="74.9"/>
		</defs>
		<clipPath id="SVGID_2_">
			<use xlink:href="#SVGID_1_"  style="overflow:visible;"/>
		</clipPath>
		<path class="st0" id="teste" d="M36.8,43.5c8.3,0,15.1-8.2,15.1-18.3c0-10.1-2.2-18.3-15.1-18.3c-12.9,0-15.1,8.2-15.1,18.3
			C21.7,35.3,28.4,43.5,36.8,43.5L36.8,43.5z M36.8,43.5"/>
		<path class="st0" d="M8.3,71.5C8.3,70.9,8.3,71.3,8.3,71.5L8.3,71.5z M8.3,71.5"/>
	</g>
	<path d="M65.2,70.8C65,53.2,62.7,48.1,45,44.9c0,0-2.5,3.2-8.3,3.2c-5.8,0-8.3-3.2-8.3-3.2C11.1,48.1,8.6,53,8.3,70.2
		c0,1.4,0,1.5,0,1.3c0,0.3,0,0.9,0,1.9c0,0,4.2,8.5,28.5,8.5c24.3,0,28.5-8.5,28.5-8.5c0-0.6,0-1.1,0-1.4
		C65.3,72.1,65.3,71.9,65.2,70.8L65.2,70.8z M65.2,70.8"/>
</g>
</svg>

