<?xml version="1.0" encoding="utf-8"?>
<!-- Generator: Adobe Illustrator 21.1.0, SVG Export Plug-In . SVG Version: 6.00 Build 0)  -->
<svg version="1.1" id="Layer_1" xmlns="http://www.w3.org/2000/svg" xmlns:xlink="http://www.w3.org/1999/xlink" x="0px" y="0px"
	 viewBox="0 0 71.1 86.6" style="enable-background:new 0 0 71.1 86.6;" xml:space="preserve">
<style type="text/css">
	.st0{clip-path:url(#SVGID_2_);}
  
  .icone-inteiro{
  fill: #fff;
  }
  
  
</style>
<g class="icone-inteiro">
	<g>
		<defs>
			<rect id="SVGID_1_" x="6.2" y="11.9" width="60.8" height="64.7"/>
		</defs>
		<clipPath id="SVGID_2_">
			<use xlink:href="#SVGID_1_"  style="overflow:visible;"/>
		</clipPath>
		<path class="st0" d="M52.4,28.4c-1.1-1.1-3-1.1-4.2,0c-1.1,1.1-1.1,3,0,4.2l8.7,8.7H20.9c-1.6,0-2.9,1.3-2.9,2.9
			c0,1.6,1.3,2.9,2.9,2.9H57l-8.7,8.7c-1.1,1.1-1.1,3,0,4.2c0.6,0.6,1.3,0.9,2.1,0.9c0.8,0,1.5-0.3,2.1-0.9l13.7-13.7
			c1.1-1.1,1.1-3,0-4.2L52.4,28.4z M52.4,28.4"/>
	</g>
	<path d="M34.6,76.6c1.6,0,2.9-1.3,2.9-2.9s-1.3-2.9-2.9-2.9H12.1v-53h22.6c1.6,0,2.9-1.3,2.9-2.9c0-1.6-1.3-2.9-2.9-2.9H9.1
		c-1.6,0-2.9,1.3-2.9,2.9v58.9c0,1.6,1.3,2.9,2.9,2.9H34.6z M34.6,76.6"/>
</g>
</svg>
