<?xml version="1.0" encoding="utf-8"?>
<!-- Generator: Adobe Illustrator 21.1.0, SVG Export Plug-In . SVG Version: 6.00 Build 0)  -->
<svg version="1.1" id="Layer_1" xmlns="http://www.w3.org/2000/svg" xmlns:xlink="http://www.w3.org/1999/xlink" x="0px" y="0px"
	 viewBox="0 0 71.1 86.6" style="enable-background:new 0 0 71.1 86.6;" xml:space="preserve">
<style type="text/css">

  .icone-inteiro{
  fill: #fff;
  }
  
</style>
<g class="icone-inteiro">
	<path class="st0" d="M67.3,34.9L36.5,12.3c-0.6-0.4-1.4-0.4-2,0L3.7,34.9c-0.8,0.6-0.9,1.6-0.4,2.4s1.6,0.9,2.4,0.4l29.8-21.8
		l29.8,21.8c0.3,0.2,0.7,0.3,1,0.3c0.5,0,1-0.2,1.4-0.7C68.2,36.5,68.1,35.4,67.3,34.9z"/>
	<path class="st0" d="M59.1,38c-0.9,0-1.7,0.8-1.7,1.7v26.9H43.9V51.9c0-4.7-3.8-8.4-8.4-8.4s-8.4,3.8-8.4,8.4v14.7H13.5V39.7
		c0-0.9-0.8-1.7-1.7-1.7s-1.7,0.8-1.7,1.7v28.6c0,0.9,0.8,1.7,1.7,1.7h16.9c0.9,0,1.6-0.7,1.7-1.6c0,0,0-0.1,0-0.1V51.9
		c0-2.8,2.3-5.1,5.1-5.1c2.8,0,5.1,2.3,5.1,5.1v16.4c0,0,0,0.1,0,0.1c0.1,0.9,0.8,1.6,1.7,1.6h16.9c0.9,0,1.7-0.8,1.7-1.7V39.7
		C60.8,38.7,60.1,38,59.1,38z"/>
</g>
</svg>
