<?xml version="1.0" encoding="utf-8"?>
<!-- Generator: Adobe Illustrator 21.1.0, SVG Export Plug-In . SVG Version: 6.00 Build 0)  -->
<svg version="1.1" id="Layer_1" xmlns="http://www.w3.org/2000/svg" xmlns:xlink="http://www.w3.org/1999/xlink" x="0px" y="0px"
	 viewBox="0 0 89.7 89.7" style="enable-background:new 0 0 89.7 89.7;" xml:space="preserve">
<style type="text/css">

    .icone-inteiro{
     fill: #ffd800;
    }
  
  
</style>
<path class="icone-inteiro" d="M49.1,20.1h-6.4h-3h-6.4c-2.3,0-4.2,1.9-4.2,4.2v9.8l7.3,6.8c0.5,0.4,0.8,1,1.1,1.5H49c2.3,0,4.2-1.9,4.2-4.2
	v-14C53.2,22,51.4,20.1,49.1,20.1L49.1,20.1z M4.8,11.8c0-4.8,3.9-8.6,8.6-8.6c4.8,0,8.6,3.9,8.6,8.6c0,4.8-3.9,8.6-8.6,8.6
	C8.6,20.4,4.8,16.6,4.8,11.8L4.8,11.8z M34.6,46.9c-0.6,0.6-1.3,0.9-2.1,0.9c-0.7,0-1.4-0.3-1.9-0.8L19,36.2v16.6
	c0,1.8-0.8,3.3-2.1,4.4L23.2,83c0.4,1.5-0.6,3-2.1,3.4c-0.2,0.1-0.4,0.1-0.7,0.1c-1.3,0-2.4-0.9-2.7-2.1l-3.6-14.8l-2,14.2
	c-0.2,1.5-1.6,2.6-3.2,2.4c-1.5-0.2-2.6-1.6-2.4-3.2l3.6-25.5c-1.4-1-2.4-2.7-2.4-4.6V31c0-3.1,2.5-5.6,5.6-5.6c0.7,0,1.4,0.1,2,0.4
	c0.5,0.1,1,0.3,1.4,0.7L34.5,43C35.6,44,35.7,45.8,34.6,46.9L34.6,46.9z M76.3,20.4c-4.8,0-8.6-3.9-8.6-8.6c0-4.8,3.9-8.6,8.6-8.6
	c4.8,0,8.6,3.9,8.6,8.6C84.9,16.6,81,20.4,76.3,20.4L76.3,20.4z M55.2,43l17.7-16.5c0.4-0.4,0.9-0.6,1.4-0.7c0.6-0.2,1.3-0.4,2-0.4
	c3.1,0,5.6,2.5,5.6,5.6v21.9c0,1.9-0.9,3.6-2.4,4.6l3.6,25.5c0.2,1.5-0.8,3-2.4,3.2c-1.5,0.2-3-0.8-3.2-2.4l-2-14.2L72,84.4
	c-0.3,1.3-1.5,2.1-2.7,2.1c-0.2,0-0.4,0-0.7-0.1c-1.5-0.4-2.4-1.9-2.1-3.4l6.3-25.8c-1.3-1-2.1-2.6-2.1-4.4V36.2L59.1,47.1
	c-0.5,0.5-1.2,0.8-1.9,0.8c-0.8,0-1.5-0.3-2.1-0.9C54,45.8,54.1,44,55.2,43L55.2,43z M55.2,43"/>
</svg>
