<?xml version="1.0" encoding="utf-8"?>
<!-- Generator: Adobe Illustrator 21.1.0, SVG Export Plug-In . SVG Version: 6.00 Build 0)  -->
<svg version="1.1" id="Layer_1" xmlns="http://www.w3.org/2000/svg" xmlns:xlink="http://www.w3.org/1999/xlink" x="0px" y="0px"
	 viewBox="0 0 89.7 89.7" style="enable-background:new 0 0 89.7 89.7;" xml:space="preserve">
<style type="text/css">

    .icone-inteiro{
  fill: #c4c4c4 !important;
  }
  
</style>
<path class="icone-inteiro" style="fill: #c4c4c4" d="M81.2,65.3L69.6,53.7c-2.3-2.3-6.1-2.2-8.5,0.2l-5.8,5.8c-0.4-0.2-0.8-0.4-1.2-0.6c-3.7-2-8.7-4.9-14.1-10.2
	c-5.3-5.3-8.1-10.4-10.2-14.1c-0.2-0.4-0.4-0.8-0.6-1.1l3.9-3.9l1.9-1.9c2.4-2.4,2.5-6.2,0.2-8.5L23.5,7.7c-2.3-2.3-6.1-2.2-8.5,0.2
	l-3.3,3.3l0.1,0.1c-1.1,1.4-2,3-2.7,4.8c-0.6,1.7-1,3.2-1.2,4.8c-1.5,12.7,4.3,24.3,20,40.1C49.7,82.7,67.3,81,68.1,80.9
	c1.6-0.2,3.2-0.6,4.8-1.2c1.7-0.7,3.3-1.6,4.7-2.7l0.1,0.1l3.3-3.2C83.4,71.5,83.5,67.6,81.2,65.3L81.2,65.3z M81.2,65.3"/>
</svg>
