<svg class="ldi-kuj9rk" width="100%" height="100%" xmlns="http://www.w3.org/2000/svg" xmlns:xlink="http://www.w3.org/1999/xlink" viewBox="0 0 100 100" preserveAspectRatio="xMidYMid">
  <!--?xml version="1.0" encoding="utf-8"?-->
  <!--Generator: Adobe Illustrator 21.0.0, SVG Export Plug-In . SVG Version: 6.00 Build 0)-->
  <svg version="1.1" id="圖層_1" xmlns="http://www.w3.org/2000/svg" xmlns:xlink="http://www.w3.org/1999/xlink" x="0px" y="0px" viewBox="0 0 100 100" style="transform-origin: 50px 50px 0px;" xml:space="preserve"><g style="transform-origin: 50px 50px 0px; transform: scale(0.53);"><g style="transform-origin: 50px 50px 0px;"><style type="text/css" class="ld ld-bounce-px" style="transform-origin: 50px 50px 0px; animation-duration: 1s; animation-delay: -1s;">.st0{fill:#D1D1D1;} .st1{fill:#454545;} .st2{fill:#464646;} .st3{fill:#474747;} .st4{fill:#494949;} .st5{fill:#D1D2D1;}</style><g class="ld ld-bounce-px" style="transform-origin: 50px 50px 0px; animation-duration: 1s; animation-delay: -0.916667s;"><path class="st5" d="M50,95c-1.57,0-3.01-0.873-3.735-2.266L26.537,54.852c-0.03-0.058-0.059-0.116-0.086-0.175 c-3.168-6.838-6.099-14.031-6.099-20.311c0-7.415,3.196-14.873,8.77-20.46C34.851,8.163,42.299,5,50.094,5 c7.792,0,15.211,3.168,20.892,8.921c5.504,5.574,8.661,13.026,8.662,20.444c0,6.968-3.428,14.354-5.932,19.747l-0.261,0.564 c-0.026,0.056-0.054,0.113-0.083,0.167L53.74,92.725c-0.723,1.395-2.164,2.272-3.736,2.273C50.003,95,50.002,95,50,95z" fill="rgba(81.96078431372548%,82.35294117647058%,81.96078431372548%,0)" stroke="#fff" style="fill: rgba(209, 210, 209, 0); stroke: rgb(255, 255, 255);"></path></g><g class="ld ld-bounce-px" style="transform-origin: 50px 50px 0px; animation-duration: 1s; animation-delay: -0.833333s;"><path class="st2" d="M49.953,9.212c-13.934,0-25.53,12.064-25.53,25.154c0,5.889,3.314,13.371,5.709,18.541L49.86,90.788 l19.633-37.882c2.395-5.17,5.802-12.277,5.802-18.541C75.295,21.276,63.884,9.212,49.953,9.212z M49.574,45.074 c-6.125,0-11.091-4.965-11.091-11.09s4.965-11.09,11.091-11.09c6.125,0,11.09,4.965,11.09,11.09S55.698,45.074,49.574,45.074z" fill="#ff6800" stroke="rgb(51, 51, 51)" style="fill: rgb(255, 104, 0); stroke: rgb(51, 51, 51);"></path></g><metadata xmlns:d="https://loading.io/stock/" class="ld ld-bounce-px" style="transform-origin: 50px 50px 0px; animation-duration: 1s; animation-delay: -0.75s;">
<d:name class="ld ld-bounce-px" style="transform-origin: 50px 50px 0px; animation-duration: 1s; animation-delay: -0.666667s;">marker</d:name>
<d:tags class="ld ld-bounce-px" style="transform-origin: 50px 50px 0px; animation-duration: 1s; animation-delay: -0.583333s;">placeholder,location,hint,marker,map</d:tags>
<d:license class="ld ld-bounce-px" style="transform-origin: 50px 50px 0px; animation-duration: 1s; animation-delay: -0.5s;">cc0</d:license>
<d:slug class="ld ld-bounce-px" style="transform-origin: 50px 50px 0px; animation-duration: 1s; animation-delay: -0.416667s;">kuj9rk</d:slug>
</metadata></g></g><style type="text/css" class="ld ld-bounce-px" style="transform-origin: 50px 50px 0px; animation-duration: 1s; animation-delay: -0.333333s;">path,ellipse,circle,rect,polygon,polyline,line { stroke-width: 0; }@keyframes ld-bounce-px {
  0%, 90% {
    animation-timing-function: linear;
  }
  10% {
    animation-timing-function: cubic-bezier(0, 0.4, 0.6, 1);
  }
  50% {
    animation-timing-function: cubic-bezier(0.4, 0, 1, 0.6);
  }
  0% {
    -webkit-transform: translate(0, 30px) scaleY(0.5);
    transform: translate(0, 30px) scaleY(0.5);
  }
  10% {
    -webkit-transform: translate(0, 5px) scaleY(1.1);
    transform: translate(0, 5px) scaleY(1.1);
  }
  50% {
    -webkit-transform: translate(0, -37px) scaleY(1.1);
    transform: translate(0, -37px) scaleY(1.1);
  }
  90% {
    -webkit-transform: translate(0, 5px) scaleY(1.1);
    transform: translate(0, 5px) scaleY(1.1);
  }
  100% {
    -webkit-transform: translate(0, 30px) scaleY(0.5);
    transform: translate(0, 30px) scaleY(0.5);
  }
}
@-webkit-keyframes ld-bounce-px {
  0%, 90% {
    animation-timing-function: linear;
  }
  10% {
    animation-timing-function: cubic-bezier(0, 0.4, 0.6, 1);
  }
  50% {
    animation-timing-function: cubic-bezier(0.4, 0, 1, 0.6);
  }
  0% {
    -webkit-transform: translate(0, 30px) scaleY(0.5);
    transform: translate(0, 30px) scaleY(0.5);
  }
  10% {
    -webkit-transform: translate(0, 5px) scaleY(1.1);
    transform: translate(0, 5px) scaleY(1.1);
  }
  50% {
    -webkit-transform: translate(0, -37px) scaleY(1.1);
    transform: translate(0, -37px) scaleY(1.1);
  }
  90% {
    -webkit-transform: translate(0, 5px) scaleY(1.1);
    transform: translate(0, 5px) scaleY(1.1);
  }
  100% {
    -webkit-transform: translate(0, 30px) scaleY(0.5);
    transform: translate(0, 30px) scaleY(0.5);
  }
}
.ld.ld-bounce-px {
  -webkit-animation: ld-bounce-px 1s infinite;
  animation: ld-bounce-px 1s infinite;
}
</style></svg>
</svg>