<?xml version="1.0" encoding="iso-8859-1"?>
<!-- Generator: Adobe Illustrator 19.0.0, SVG Export Plug-In . SVG Version: 6.00 Build 0)  -->
<svg version="1.1" id="Capa_1" xmlns="http://www.w3.org/2000/svg" xmlns:xlink="http://www.w3.org/1999/xlink" x="0px" y="0px"
	 viewBox="0 0 468.293 468.293" style="enable-background:new 0 0 468.293 468.293;" xml:space="preserve">
<g>
	<path style="fill:#D15241;" d="M450.363,45.915H17.93V6.244C17.93,2.795,20.725,0,24.174,0h419.945
		c3.448,0,6.244,2.795,6.244,6.244V45.915z"/>
	<path style="fill:#D15241;" d="M450.363,468.293H17.93c-6.897,0-12.488-5.591-12.488-12.488v-33.428H462.85v33.428
		C462.85,462.702,457.26,468.293,450.363,468.293z"/>
</g>
<polygon style="fill:#E56353;" points="450.363,45.915 17.93,45.915 52.752,212.195 415.541,212.195 "/>
<polygon style="fill:#44C4A1;" points="462.85,422.377 5.442,422.377 52.752,212.195 415.541,212.195 "/>
<ellipse style="fill:#FCD462;" cx="234.146" cy="317.315" rx="170.146" ry="87.664"/>
<g>
	<ellipse style="fill:#27A2DB;" cx="211.731" cy="269.83" rx="10.846" ry="5.026"/>
	<ellipse style="fill:#27A2DB;" cx="160.718" cy="301.037" rx="10.846" ry="5.026"/>
	<ellipse style="fill:#27A2DB;" cx="239.909" cy="345.444" rx="10.846" ry="5.026"/>
	<ellipse style="fill:#27A2DB;" cx="307.119" cy="353.842" rx="10.846" ry="5.026"/>
	<ellipse style="fill:#27A2DB;" cx="160.718" cy="350.033" rx="10.846" ry="5.026"/>
	<ellipse style="fill:#27A2DB;" cx="247.883" cy="311.82" rx="10.846" ry="5.026"/>
	<ellipse style="fill:#27A2DB;" cx="321.811" cy="317.315" rx="10.846" ry="5.026"/>
	<ellipse style="fill:#27A2DB;" cx="282.062" cy="278.228" rx="10.846" ry="5.026"/>
</g>
<g>
	<path style="fill:#E56353;" d="M197.712,334.149c-1.391,0-2.775-0.225-3.834-0.675c-8.339-3.542-8.346-9.31-0.007-12.855
		c4.498-1.911,4.498-4.754,0.381-6.503c-8.72-3.707-8.72-9.475-0.381-13.017c2.118-0.9,5.55-0.9,7.668,0
		c2.118,0.9,2.118,2.358,0,3.257c-4.109,1.749-4.109,4.592,0.007,6.341c8.72,3.701,8.727,9.469,0.381,13.017
		c-4.498,1.911-4.498,4.754-0.381,6.503c2.118,0.9,2.118,2.358,0,3.257C200.487,333.924,199.103,334.149,197.712,334.149z"/>
	<path style="fill:#E56353;" d="M211.538,387.549c-1.391,0-2.775-0.225-3.834-0.675c-8.339-3.542-8.346-9.31-0.007-12.855
		c4.498-1.911,4.498-4.754,0.381-6.503c-8.72-3.707-8.72-9.475-0.381-13.017c2.118-0.9,5.55-0.9,7.668,0
		c2.118,0.9,2.118,2.358,0,3.257c-4.109,1.749-4.109,4.592,0.007,6.341c8.72,3.701,8.727,9.469,0.381,13.017
		c-4.498,1.911-4.498,4.754-0.381,6.503c2.118,0.9,2.118,2.358,0,3.257C214.313,387.324,212.929,387.549,211.538,387.549z"/>
	<path style="fill:#E56353;" d="M177.195,286.694c-1.391,0-2.775-0.225-3.834-0.675c-8.339-3.542-8.346-9.31-0.007-12.855
		c4.498-1.911,4.498-4.754,0.381-6.503c-8.72-3.707-8.72-9.475-0.381-13.017c2.118-0.9,5.55-0.9,7.668,0
		c2.118,0.9,2.118,2.358,0,3.257c-4.109,1.749-4.109,4.592,0.007,6.341c8.72,3.701,8.727,9.469,0.381,13.017
		c-4.498,1.911-4.498,4.754-0.381,6.503c2.118,0.9,2.118,2.358,0,3.257C179.97,286.469,178.586,286.694,177.195,286.694z"/>
	<path style="fill:#E56353;" d="M253.276,278.213c-1.391,0-2.775-0.225-3.834-0.675c-8.339-3.542-8.346-9.31-0.007-12.855
		c4.498-1.911,4.498-4.754,0.381-6.503c-8.72-3.707-8.72-9.475-0.381-13.017c2.118-0.9,5.55-0.9,7.668,0
		c2.118,0.9,2.118,2.357,0,3.257c-4.109,1.749-4.109,4.592,0.007,6.341c8.72,3.701,8.727,9.469,0.381,13.017
		c-4.498,1.911-4.498,4.754-0.381,6.503c2.118,0.9,2.118,2.358,0,3.257C256.051,277.988,254.667,278.213,253.276,278.213z"/>
	<path style="fill:#E56353;" d="M124.485,317.898c-1.391,0-2.775-0.225-3.834-0.675c-8.339-3.542-8.346-9.31-0.007-12.855
		c4.498-1.911,4.498-4.754,0.381-6.503c-8.72-3.707-8.72-9.475-0.381-13.017c2.118-0.9,5.55-0.9,7.668,0
		c2.118,0.9,2.118,2.358,0,3.257c-4.109,1.749-4.109,4.592,0.007,6.341c8.72,3.701,8.727,9.469,0.381,13.017
		c-4.498,1.911-4.498,4.754-0.381,6.503c2.118,0.9,2.118,2.358,0,3.257C127.26,317.673,125.876,317.898,124.485,317.898z"/>
	<path style="fill:#E56353;" d="M281.894,328.7c-1.391,0-2.775-0.225-3.834-0.675c-8.339-3.542-8.346-9.31-0.007-12.855
		c4.498-1.911,4.498-4.754,0.381-6.503c-8.72-3.707-8.72-9.475-0.381-13.017c2.118-0.9,5.55-0.9,7.668,0
		c2.118,0.9,2.118,2.358,0,3.257c-4.109,1.749-4.109,4.592,0.007,6.341c8.72,3.701,8.727,9.469,0.381,13.017
		c-4.498,1.911-4.498,4.754-0.381,6.503c2.118,0.9,2.118,2.358,0,3.257C284.669,328.475,283.285,328.7,281.894,328.7z"/>
	<path style="fill:#E56353;" d="M263.534,392.578c-1.391,0-2.775-0.225-3.834-0.675c-8.339-3.542-8.346-9.31-0.007-12.855
		c4.498-1.911,4.498-4.754,0.381-6.503c-8.72-3.707-8.72-9.475-0.381-13.017c2.118-0.9,5.55-0.9,7.668,0
		c2.118,0.9,2.118,2.358,0,3.257c-4.109,1.749-4.109,4.592,0.007,6.341c8.72,3.701,8.727,9.469,0.381,13.017
		c-4.498,1.911-4.498,4.754-0.381,6.503c2.118,0.9,2.118,2.358,0,3.257C266.309,392.353,264.925,392.578,263.534,392.578z"/>
	<path style="fill:#E56353;" d="M317.798,291.722c-1.391,0-2.775-0.225-3.834-0.675c-8.339-3.542-8.346-9.31-0.007-12.855
		c4.498-1.911,4.498-4.754,0.381-6.503c-8.72-3.707-8.72-9.475-0.381-13.017c2.118-0.9,5.55-0.9,7.668,0
		c2.118,0.9,2.118,2.358,0,3.257c-4.109,1.749-4.109,4.592,0.007,6.341c8.72,3.701,8.727,9.469,0.381,13.017
		c-4.498,1.911-4.498,4.754-0.381,6.503c2.118,0.9,2.118,2.358,0,3.257C320.573,291.497,319.189,291.722,317.798,291.722z"/>
</g>
<g>
</g>
<g>
</g>
<g>
</g>
<g>
</g>
<g>
</g>
<g>
</g>
<g>
</g>
<g>
</g>
<g>
</g>
<g>
</g>
<g>
</g>
<g>
</g>
<g>
</g>
<g>
</g>
<g>
</g>
</svg>
