<?xml version="1.0" ?><!DOCTYPE svg  PUBLIC '-//W3C//DTD SVG 1.1//EN'  'http://www.w3.org/Graphics/SVG/1.1/DTD/svg11.dtd'><svg id="Layer_1" style="enable-background:new 0 0 124 124;" version="1.1" viewBox="0 0 124 124" xml:space="preserve" xmlns="http://www.w3.org/2000/svg" xmlns:xlink="http://www.w3.org/1999/xlink"><style type="text/css">
	.st0{fill:#E73530;}
	.st1{fill:#0066B2;}
	.st2{fill:#F9A533;}
	.st3{fill:#336699;}
	.st4{fill:#003366;}
	.st5{fill:#203C73;}
	.st6{fill:#EE3A3F;}
	.st7{fill:#0067B2;}
	.st8{fill:#FAAC18;}
	.st9{fill:#6AB845;}
	.st10{fill:#231F20;}
	.st11{fill-rule:evenodd;clip-rule:evenodd;fill:#231F20;}
	.st12{fill-rule:evenodd;clip-rule:evenodd;fill:#008060;}
	.st13{fill:#007CC3;}
	.st14{fill:#009DDD;}
	.st15{fill:#FFFFFF;}
	.st16{fill-rule:evenodd;clip-rule:evenodd;fill:#FF9900;}
	.st17{fill-rule:evenodd;clip-rule:evenodd;}
	.st18{fill:#862165;}
	.st19{fill:#58595B;}
	.st20{fill-rule:evenodd;clip-rule:evenodd;fill:#9A9FB8;}
	.st21{fill:#00A551;}
	.st22{fill:#0071BB;}
	.st23{fill:#EC1C24;}
	.st24{fill:#EC1C2E;}
	.st25{fill:#0084C4;}
	.st26{fill:none;stroke:#FFFFFF;stroke-width:0.215;}
	.st27{fill-rule:evenodd;clip-rule:evenodd;fill:#FAA929;}
	.st28{fill-rule:evenodd;clip-rule:evenodd;fill:#045EA0;}
	.st29{fill:url(#SVGID_1_);}
	.st30{fill:url(#SVGID_2_);}
	.st31{fill:url(#SVGID_3_);}
	.st32{fill:url(#SVGID_4_);}
	.st33{fill:#273D49;}
	.st34{fill:#48606D;}
	.st35{fill:#8BB43F;}
	.st36{fill-rule:evenodd;clip-rule:evenodd;fill:#FBB231;}
	.st37{fill-rule:evenodd;clip-rule:evenodd;fill:#EC1C2E;}
	.st38{fill-rule:evenodd;clip-rule:evenodd;fill:#FFFFFF;}
	.st39{fill:none;stroke:#FFFFFF;stroke-width:0.216;stroke-miterlimit:2.6131;}
	.st40{fill-rule:evenodd;clip-rule:evenodd;fill:#121212;}
	.st41{fill:#004A97;}
	.st42{fill:#0078A9;}
	.st43{fill:url(#SVGID_5_);}
	.st44{fill:#001722;}
</style><g><g><polygon class="st24" points="81.9,92 83.5,92 85,91.9 86.5,91.7 88,91.4 89.4,91.1 90.9,90.7 92.3,90.2 93.6,89.7 95,89.1     96.3,88.4 97.5,87.7 98.7,86.9 99.9,86.1 101.1,85.2 102.2,84.2 103.2,83.2 104.2,82.2 105.1,81.1 106,79.9 106.9,78.8     107.6,77.5 108.4,76.3 109,75 109.6,73.7 110.2,72.3 110.6,70.9 111.1,69.5 111.4,68 111.7,66.5 111.8,65 112,63.5 112,61.9     112,60.4 111.8,58.9 111.7,57.4 111.4,55.9 111.1,54.5 110.6,53 110.2,51.7 109.6,50.3 109,49 108.4,47.7 107.6,46.4 106.9,45.2     106,44 105.1,42.9 104.2,41.8 103.2,40.8 102.2,39.8 101.1,38.8 99.9,37.9 98.7,37.1 97.5,36.3 96.3,35.6 95,34.9 93.6,34.3     92.3,33.8 90.9,33.3 89.4,32.9 88,32.6 86.5,32.3 85,32.1 83.5,32 81.9,32 80.4,32 78.8,32.1 77.3,32.3 75.9,32.6 74.4,32.9     73,33.3 71.6,33.8 70.2,34.3 68.9,34.9 67.6,35.6 66.3,36.3 65.1,37.1 63.9,37.9 62.8,38.8 61.7,39.8 60.7,40.8 59.7,41.8     58.7,42.9 57.8,44 57,45.2 56.2,46.4 55.5,47.7 54.8,49 54.3,50.3 53.7,51.7 53.2,53 52.8,54.5 52.5,55.9 52.2,57.4 52.1,58.9     51.9,60.4 51.9,61.9 51.9,63.5 52.1,65 52.2,66.5 52.5,68 52.8,69.5 53.2,70.9 53.7,72.3 54.3,73.7 54.8,75 55.5,76.3 56.2,77.5     57,78.8 57.8,79.9 58.7,81.1 59.7,82.2 60.7,83.2 61.7,84.2 62.8,85.2 63.9,86.1 65.1,86.9 66.3,87.7 67.6,88.4 68.9,89.1     70.2,89.7 71.6,90.2 73,90.7 74.4,91.1 75.9,91.4 77.3,91.7 78.8,91.9 80.4,92   "/><polygon class="st25" points="42.1,92 43.6,92 45.2,91.9 46.7,91.7 48.1,91.4 49.6,91.1 51,90.7 52.4,90.2 53.8,89.7 55.1,89.1     56.4,88.4 57.7,87.7 58.9,86.9 60.1,86.1 61.2,85.2 62.3,84.2 63.3,83.2 64.3,82.2 65.3,81.1 66.2,79.9 67,78.8 67.8,77.5     68.5,76.3 69.2,75 69.8,73.7 70.3,72.3 70.8,70.9 71.2,69.5 71.5,68 71.8,66.5 71.9,65 72.1,63.5 72.1,61.9 72.1,60.4 71.9,58.9     71.8,57.4 71.5,55.9 71.2,54.5 70.8,53 70.3,51.7 69.8,50.3 69.2,49 68.5,47.7 67.8,46.4 67,45.2 66.2,44 65.3,42.9 64.3,41.8     63.3,40.8 62.3,39.8 61.2,38.8 60.1,37.9 58.9,37.1 57.7,36.3 56.4,35.6 55.1,34.9 53.8,34.3 52.4,33.8 51,33.3 49.6,32.9     48.1,32.6 46.7,32.3 45.2,32.1 43.6,32 42.1,32 40.5,32 39,32.1 37.5,32.3 36,32.6 34.6,32.9 33.1,33.3 31.7,33.8 30.4,34.3     29,34.9 27.7,35.6 26.5,36.3 25.3,37.1 24.1,37.9 22.9,38.8 21.8,39.8 20.8,40.8 19.8,41.8 18.9,42.9 18,44 17.1,45.2 16.4,46.4     15.6,47.7 15,49 14.4,50.3 13.8,51.7 13.4,53 12.9,54.5 12.6,55.9 12.3,57.4 12.2,58.9 12,60.4 12,61.9 12,63.5 12.2,65     12.3,66.5 12.6,68 12.9,69.5 13.4,70.9 13.8,72.3 14.4,73.7 15,75 15.6,76.3 16.4,77.5 17.1,78.8 18,79.9 18.9,81.1 19.8,82.2     20.8,83.2 21.8,84.2 22.9,85.2 24.1,86.1 25.3,86.9 26.5,87.7 27.7,88.4 29,89.1 30.4,89.7 31.7,90.2 33.1,90.7 34.6,91.1     36,91.4 37.5,91.7 39,91.9 40.5,92   "/><polygon class="st24" points="58.3,43.4 73.5,43.4 73.5,41.7 59.8,41.7   "/><polygon class="st24" points="55.9,47 73.5,47 73.5,45.3 57,45.3   "/><polygon class="st24" points="54.1,50.6 73.5,50.6 73.5,48.9 54.9,48.9   "/><polygon class="st24" points="53,54.1 73.5,54.1 73.5,52.5 53.5,52.5   "/><polygon class="st24" points="52.2,57.7 73.5,57.7 73.5,56 52.5,56   "/><polygon class="st24" points="52,64.6 73.5,64.6 73.5,62.9 51.9,62.9   "/><polygon class="st24" points="52.6,68.3 73.5,68.3 73.5,66.7 52.2,66.7   "/><polygon class="st24" points="53.6,71.4 73.5,71.4 73.5,69.7 53.1,69.7   "/><polygon class="st24" points="55.1,75.1 73.5,75.1 73.5,73.4 54.3,73.4   "/><polygon class="st24" points="57.2,78.9 73.5,78.9 73.5,77.2 56.1,77.2   "/><polygon class="st24" points="59.9,82.5 73.4,82.5 73.4,80.8 58.4,80.8   "/><g><g><polygon class="st24" points="107.1,80.4 107.1,80.1 107.3,79.9 107.5,79.7 107.7,79.5 107.9,79.3 108.2,79.3 108.5,79.2       108.8,79.3 109.1,79.3 109.3,79.5 109.5,79.7 109.7,79.9 109.8,80.1 109.9,80.4 109.6,80.4 109.6,80.2 109.5,80 109.3,79.8       109.2,79.7 109,79.6 108.7,79.5 108.5,79.5 108.3,79.5 108,79.6 107.8,79.7 107.7,79.8 107.5,80 107.4,80.2 107.4,80.4     "/><polygon class="st24" points="108,80.4 108,80 108.5,80 108.7,80 108.8,80.1 108.9,80.1 109,80.1 109,80.2 109.1,80.2       109.1,80.3 109.1,80.4 108.9,80.4 108.9,80.4 108.8,80.3 108.8,80.3 108.8,80.3 108.8,80.2 108.7,80.2 108.7,80.2 108.6,80.2       108.5,80.2 108.2,80.2 108.2,80.4     "/><polygon class="st24" points="107,80.6 107.1,80.4 107.1,80.4 107.4,80.4 107.3,80.4 107.3,80.6     "/><polygon class="st24" points="108,80.6 108,80.4 108.2,80.4 108.2,80.6 108.5,80.6 108.6,80.6 108.7,80.6 108.7,80.6       108.8,80.6 108.8,80.5 108.8,80.5 108.9,80.5 108.9,80.4 109.1,80.4 109.1,80.4 109.1,80.5 109.1,80.6 109,80.6 109,80.6           "/><polygon class="st24" points="109.7,80.6 109.6,80.4 109.6,80.4 109.9,80.4 109.9,80.4 110,80.6     "/><polygon class="st24" points="107,80.6 107,80.7 107.1,81 107.1,81.3 107.3,81.5 107.5,81.7 107.7,81.9 107.9,82 108.2,82.1       108.5,82.1 108.8,82.1 109.1,82 109.3,81.9 109.5,81.7 109.7,81.5 109.8,81.3 109.9,81 110,80.7 110,80.6 109.7,80.6       109.7,80.7 109.6,81 109.6,81.2 109.5,81.4 109.3,81.6 109.2,81.7 109,81.8 108.7,81.9 108.5,81.9 108.3,81.9 108,81.8       107.8,81.7 107.7,81.6 107.5,81.4 107.4,81.2 107.3,81 107.3,80.7 107.3,80.6     "/><polygon class="st24" points="108,80.6 108,81.3 108.2,81.3 108.2,80.8 108.5,80.8 108.8,81.3 109.1,81.3 108.7,80.8       108.8,80.7 108.9,80.7 108.9,80.7 109,80.7 109,80.6     "/></g></g><polygon class="st15" points="75.4,59.4 75.2,59.4 75,59.4 74.8,59.4 74.7,59.3 74.5,59.3 74.3,59.3 74.1,59.2 73.9,59.2     73.7,59.2 73.5,59.2 73.3,59.2 73,59.1 72.7,59.1 72.4,59.2 72,59.2 71.6,59.2 71.3,59.2 71,59.3 70.8,59.4 70.6,59.5 70.4,59.6     70.2,59.7 70.1,59.8 69.9,60 69.9,60.1 69.8,60.3 69.8,60.5 69.8,60.6 69.8,60.8 69.9,61 70,61.2 70.1,61.4 70.4,61.7 70.7,61.9     71.1,62 71.6,62.2 72,62.3 72.5,62.5 72.9,62.7 73.4,62.8 73.8,63.1 74.2,63.4 74.6,63.7 74.9,64.2 75.1,64.7 75.3,65.3     75.3,66.1 75.3,67 75.1,67.6 75,68.2 74.7,68.8 74.5,69.2 74.1,69.6 73.8,70 73.3,70.3 72.9,70.6 72.5,70.8 72,71 71.5,71.1     71,71.2 70.5,71.3 70.1,71.4 69.6,71.4 69.2,71.4 68.6,71.4 68,71.4 67.5,71.4 67,71.4 66.6,71.3 66.2,71.3 65.9,71.3 65.6,71.3     65.3,71.2 65,71.2 64.7,71.1 64.5,71.1 64.2,71 64,70.9 63.8,70.8 63.5,70.7 64.1,67.6 64.3,67.7 64.4,67.7 64.6,67.8 64.9,67.8     65.1,67.9 65.4,67.9 65.7,68 66.1,68.1 66.4,68.1 66.8,68.2 67.2,68.2 67.6,68.2 68,68.3 68.4,68.3 68.8,68.3 69.3,68.2     69.7,68.2 70,68.1 70.2,67.9 70.4,67.7 70.6,67.5 70.7,67.3 70.8,67.1 70.8,66.9 70.9,66.6 70.9,66.5 70.8,66.3 70.7,66.1     70.6,65.9 70.5,65.8 70.3,65.7 70.1,65.6 69.9,65.5 69.7,65.3 69.4,65.2 69.2,65.1 68.9,65 68.7,64.9 68.4,64.8 68.1,64.7     67.8,64.6 67.5,64.5 67.3,64.3 67,64.2 66.7,64 66.5,63.8 66.3,63.6 66.1,63.4 65.9,63.1 65.7,62.8 65.6,62.5 65.5,62.2     65.4,61.8 65.3,61.4 65.3,61 65.3,60.5 65.4,60.2 65.4,60 65.5,59.7 65.5,59.4 65.6,59.2 65.6,59 65.7,58.7 65.8,58.5 65.9,58.3     66,58.1 66.2,57.9 66.3,57.7 66.5,57.5 66.6,57.4 66.8,57.2 67,57.1 67.2,56.9 67.4,56.8 67.6,56.7 67.8,56.6 68.1,56.5     68.3,56.4 68.6,56.3 68.9,56.2 69.2,56.1 69.6,56.1 69.9,56 70.3,56 70.6,55.9 71,55.9 71.4,55.9 71.8,55.9 72.4,55.9 72.8,55.9     73.3,55.9 73.7,55.9 74,56 74.3,56 74.6,56 74.9,56 75.1,56.1 75.3,56.1 75.5,56.1 75.6,56.1 75.8,56.2 75.9,56.2 76,56.2     76.1,56.2   "/><g><g><polyline class="st26" points="75.4,59.4 75.4,59.4 75.2,59.4 75,59.4 74.8,59.4 74.7,59.3 74.5,59.3 74.3,59.3 74.1,59.2       73.9,59.2 73.7,59.2 73.5,59.2 73.3,59.2 73,59.1 72.7,59.1 72.4,59.2 72,59.2 71.6,59.2 71.6,59.2 71.3,59.2 71,59.3       70.8,59.4 70.6,59.5 70.4,59.6 70.2,59.7 70.1,59.8 69.9,60 69.9,60.1 69.8,60.3 69.8,60.5 69.8,60.6 69.8,60.8 69.9,61       70,61.2 70.1,61.4 70.1,61.4 70.4,61.7 70.7,61.9 71.1,62 71.6,62.2 72,62.3 72.5,62.5 72.9,62.7 73.4,62.8 73.8,63.1       74.2,63.4 74.6,63.7 74.9,64.2 75.1,64.7 75.3,65.3 75.3,66.1 75.3,67 75.3,67 75.1,67.6 75,68.2 74.7,68.8 74.5,69.2       74.1,69.6 73.8,70 73.3,70.3 72.9,70.6 72.5,70.8 72,71 71.5,71.1 71,71.2 70.5,71.3 70.1,71.4 69.6,71.4 69.2,71.4 69.2,71.4       68.6,71.4 68,71.4 67.5,71.4 67,71.4 66.6,71.3 66.2,71.3 65.9,71.3 65.6,71.3 65.3,71.2 65,71.2 64.7,71.1 64.5,71.1 64.2,71       64,70.9 63.8,70.8 63.5,70.7 64.1,67.6 64.1,67.6 64.3,67.7 64.4,67.7 64.6,67.8 64.9,67.8 65.1,67.9 65.4,67.9 65.7,68       66.1,68.1 66.4,68.1 66.8,68.2 67.2,68.2 67.6,68.2 68,68.3 68.4,68.3 68.8,68.3 69.3,68.2 69.3,68.2 69.7,68.2 70,68.1       70.2,67.9 70.4,67.7 70.6,67.5 70.7,67.3 70.8,67.1 70.8,66.9 70.8,66.9 70.9,66.6 70.9,66.5 70.8,66.3 70.7,66.1 70.6,65.9       70.5,65.8 70.3,65.7 70.1,65.6 69.9,65.5 69.7,65.3 69.4,65.2 69.2,65.1 68.9,65 68.7,64.9 68.4,64.8 68.1,64.7 67.8,64.6       67.5,64.5 67.3,64.3 67,64.2 66.7,64 66.5,63.8 66.3,63.6 66.1,63.4 65.9,63.1 65.7,62.8 65.6,62.5 65.5,62.2 65.4,61.8       65.3,61.4 65.3,61 65.3,60.5 65.3,60.5 65.4,60.2 65.4,60 65.5,59.7 65.5,59.4 65.6,59.2 65.6,59 65.7,58.7 65.8,58.5       65.9,58.3 66,58.1 66.2,57.9 66.3,57.7 66.5,57.5 66.6,57.4 66.8,57.2 67,57.1 67.2,56.9 67.4,56.8 67.6,56.7 67.8,56.6       68.1,56.5 68.3,56.4 68.6,56.3 68.9,56.2 69.2,56.1 69.6,56.1 69.9,56 70.3,56 70.6,55.9 71,55.9 71.4,55.9 71.8,55.9       71.8,55.9 72.4,55.9 72.8,55.9 73.3,55.9 73.7,55.9 74,56 74.3,56 74.6,56 74.9,56 75.1,56.1 75.3,56.1 75.5,56.1 75.6,56.1       75.8,56.2 75.9,56.2 76,56.2 76.1,56.2 75.4,59.4     "/></g></g><polygon class="st15" points="78.7,52.8 82.6,52.8 82,56.3 84.5,56.3 83.9,59.4 81.4,59.4 80.1,67.2 80.1,67.4 80.1,67.5     80.1,67.7 80.1,67.8 80.2,67.9 80.3,68 80.3,68.1 80.4,68.1 80.6,68.2 80.7,68.2 80.8,68.3 81,68.3 81.1,68.3 81.3,68.3     81.4,68.3 81.6,68.3 81.9,68.3 82.2,68.3 82.5,68.3 82.7,68.2 82.8,68.2 83,68.1 83.1,68.1 83.1,68.1 82.7,70.8 82.6,70.8     82.5,70.9 82.4,70.9 82.3,71 82.1,71 82,71.1 81.9,71.1 81.8,71.1 81.6,71.2 81.5,71.2 81.3,71.2 81.1,71.3 80.9,71.3 80.8,71.3     80.5,71.4 80.3,71.4 79.2,71.4 78.7,71.4 78.2,71.3 77.7,71.2 77.3,71.1 77,71 76.7,70.8 76.5,70.7 76.3,70.5 76.2,70.3     76.1,70.1 76,69.8 75.9,69.5 75.9,69.2 75.9,68.9 76,68.6 76,68.2   "/><g><g><polyline class="st26" points="78.7,52.8 82.6,52.8 82,56.3 84.5,56.3 83.9,59.4 81.4,59.4 80.1,67.2 80.1,67.2 80.1,67.4       80.1,67.5 80.1,67.7 80.1,67.8 80.2,67.9 80.3,68 80.3,68.1 80.4,68.1 80.6,68.2 80.7,68.2 80.8,68.3 81,68.3 81.1,68.3       81.3,68.3 81.4,68.3 81.6,68.3 81.6,68.3 81.9,68.3 82.2,68.3 82.5,68.3 82.7,68.2 82.8,68.2 83,68.1 83.1,68.1 83.1,68.1       82.7,70.8 82.7,70.8 82.6,70.8 82.5,70.9 82.4,70.9 82.3,71 82.1,71 82,71.1 81.9,71.1 81.8,71.1 81.6,71.2 81.5,71.2       81.3,71.2 81.1,71.3 80.9,71.3 80.8,71.3 80.5,71.4 80.3,71.4 79.2,71.4 79.2,71.4 78.7,71.4 78.2,71.3 77.7,71.2 77.3,71.1       77,71 76.7,70.8 76.5,70.7 76.3,70.5 76.2,70.3 76.1,70.1 76,69.8 75.9,69.5 75.9,69.2 75.9,68.9 76,68.6 76,68.2 78.7,52.8           "/></g></g><polygon class="st15" points="54.5,64.8 54.5,65 54.5,65.3 54.5,65.6 54.6,65.8 54.6,66.1 54.8,66.3 54.9,66.6 55.1,66.8     55.2,67.1 55.5,67.3 55.7,67.5 55.9,67.7 56.2,67.9 56.5,68 56.8,68.1 57.1,68.1 57.4,68.2 57.8,68.2 58.1,68.3 58.5,68.3     58.9,68.3 59.3,68.3 59.6,68.3 60,68.3 60.4,68.2 60.8,68.1 61.2,68 61.6,67.9 62,67.8 62.4,67.6 62.8,67.4 63.2,67.1 62.6,70.6     62.4,70.8 62.1,70.9 61.9,71 61.7,71 61.5,71.1 61.3,71.2 61.1,71.2 60.8,71.3 60.6,71.3 60.3,71.3 60,71.4 59.7,71.4 59.3,71.4     58.9,71.4 58.5,71.4 58,71.4 57.6,71.4 57.3,71.4 56.9,71.4 56.6,71.3 56.2,71.3 55.9,71.2 55.5,71.1 55.2,71.1 54.8,70.9     54.5,70.8 54.1,70.7 53.8,70.6 53.5,70.4 53.2,70.2 52.9,70 52.6,69.8 52.3,69.6 52,69.3 51.8,69 51.5,68.7 51.3,68.4 51.1,68.1     50.9,67.7 50.8,67.3 50.6,66.9 50.5,66.5 50.5,66 50.4,65.5 50.4,65 50.4,64.5 50.4,63.9 50.4,63.3 50.5,63.1 50.5,62.9     50.5,62.6 50.6,62.4 50.6,62.1 50.7,61.8 50.8,61.5 50.8,61.3 50.9,60.9 51.1,60.6 51.2,60.3 51.3,60 51.5,59.7 51.6,59.4     51.8,59.1 52,58.8 52.3,58.5 52.5,58.3 52.8,58 53,57.7 53.3,57.5 53.7,57.2 54,57 54.4,56.8 54.8,56.6 55.2,56.5 55.6,56.3     56.1,56.2 56.6,56.1 57.2,56 57.7,56 58.3,56 58.6,56 58.9,56 59.1,56 59.4,56 59.7,56.1 60,56.1 60.3,56.2 60.6,56.3 60.9,56.4     61.2,56.5 61.4,56.6 61.7,56.7 62,56.9 62.2,57.1 62.4,57.3 62.7,57.5 62.9,57.7 63.1,57.9 63.3,58.2 63.5,58.5 63.6,58.8     63.8,59.1 63.9,59.5 64,59.9 64,60.3 64.1,60.7 64.1,61.2 64.1,61.7 64.1,62.2 64,62.8 63.9,63.4 63.8,64 63.7,64.8 53.4,64.8     54,62.1 60.2,62.1 60.2,61.7 60.2,61.4 60.2,61.1 60.1,60.8 60,60.5 59.9,60.2 59.8,60 59.7,59.8 59.5,59.7 59.3,59.5 59.1,59.4     58.9,59.3 58.7,59.2 58.4,59.1 58.2,59.1 57.9,59.1 57.7,59.1 57.4,59.1 57.2,59.2 56.9,59.3 56.7,59.4 56.5,59.5 56.3,59.7     56.1,59.8 55.9,60 55.7,60.2 55.6,60.5 55.5,60.7 55.3,61 55.2,61.2 55.2,61.5 55.1,61.8   "/><g><g><polyline class="st26" points="54.5,64.8 54.5,64.8 54.5,65 54.5,65.3 54.5,65.6 54.6,65.8 54.6,66.1 54.8,66.3 54.9,66.6       55.1,66.8 55.2,67.1 55.5,67.3 55.7,67.5 55.9,67.7 56.2,67.9 56.5,68 56.8,68.1 57.1,68.1 57.1,68.1 57.4,68.2 57.8,68.2       58.1,68.3 58.5,68.3 58.9,68.3 59.3,68.3 59.6,68.3 60,68.3 60.4,68.2 60.8,68.1 61.2,68 61.6,67.9 62,67.8 62.4,67.6       62.8,67.4 63.2,67.1 62.6,70.6 62.6,70.6 62.4,70.8 62.1,70.9 61.9,71 61.7,71 61.5,71.1 61.3,71.2 61.1,71.2 60.8,71.3       60.6,71.3 60.3,71.3 60,71.4 59.7,71.4 59.3,71.4 58.9,71.4 58.5,71.4 58,71.4 58,71.4 57.6,71.4 57.3,71.4 56.9,71.4       56.6,71.3 56.2,71.3 55.9,71.2 55.5,71.1 55.2,71.1 54.8,70.9 54.5,70.8 54.1,70.7 53.8,70.6 53.5,70.4 53.2,70.2 52.9,70       52.6,69.8 52.3,69.6 52,69.3 51.8,69 51.5,68.7 51.3,68.4 51.1,68.1 50.9,67.7 50.8,67.3 50.6,66.9 50.5,66.5 50.5,66       50.4,65.5 50.4,65 50.4,64.5 50.4,63.9 50.4,63.3 50.4,63.3 50.5,63.1 50.5,62.9 50.5,62.6 50.6,62.4 50.6,62.1 50.7,61.8       50.8,61.5 50.8,61.3 50.9,60.9 51.1,60.6 51.2,60.3 51.3,60 51.5,59.7 51.6,59.4 51.8,59.1 52,58.8 52.3,58.5 52.5,58.3       52.8,58 53,57.7 53.3,57.5 53.7,57.2 54,57 54.4,56.8 54.8,56.6 55.2,56.5 55.6,56.3 56.1,56.2 56.6,56.1 57.2,56 57.7,56       58.3,56 58.3,56 58.6,56 58.9,56 59.1,56 59.4,56 59.7,56.1 60,56.1 60.3,56.2 60.6,56.3 60.9,56.4 61.2,56.5 61.4,56.6       61.7,56.7 62,56.9 62.2,57.1 62.4,57.3 62.7,57.5 62.9,57.7 63.1,57.9 63.3,58.2 63.5,58.5 63.6,58.8 63.8,59.1 63.9,59.5       64,59.9 64,60.3 64.1,60.7 64.1,61.2 64.1,61.7 64.1,62.2 64,62.8 63.9,63.4 63.8,64 63.7,64.8 53.4,64.8 54,62.1 60.2,62.1       60.2,62.1 60.2,61.7 60.2,61.4 60.2,61.1 60.1,60.8 60,60.5 59.9,60.2 59.8,60 59.7,59.8 59.5,59.7 59.3,59.5 59.1,59.4       58.9,59.3 58.7,59.2 58.4,59.1 58.2,59.1 57.9,59.1 57.9,59.1 57.7,59.1 57.4,59.1 57.2,59.2 56.9,59.3 56.7,59.4 56.5,59.5       56.3,59.7 56.1,59.8 55.9,60 55.7,60.2 55.6,60.5 55.5,60.7 55.3,61 55.2,61.2 55.2,61.5 55.1,61.8 54.5,64.8     "/></g></g><polygon class="st15" points="49.1,68.2 48.5,71.4 44.9,71.4 45,71.1 45,70.8 45,70.5 45.1,70.3 45.1,70.1 45.2,69.9 45.2,69.8     45.2,69.7 45,69.9 44.8,70.2 44.5,70.4 44.2,70.6 43.9,70.7 43.6,70.9 43.2,71.1 42.8,71.2 42.4,71.4 42,71.5 41.6,71.5     41.1,71.6 40.7,71.6 40.3,71.6 39.9,71.6 39.5,71.6 39,71.4 38.6,71.3 38.2,71.1 37.8,70.9 37.5,70.7 37.3,70.4 37,70.1     36.8,69.8 36.7,69.5 36.5,69.2 36.4,68.9 36.3,68.6 36.3,68.3 36.2,68 36.2,67.6 36.2,67.3 36.2,66.8 36.3,66.3 36.4,65.7     36.6,65.3 36.9,64.8 37.1,64.4 37.4,64 37.8,63.7 38.1,63.3 38.5,63.1 38.9,62.8 39.3,62.6 39.8,62.4 40.3,62.2 40.7,62.1     41.2,62 41.2,62 41.3,62 41.4,62 41.6,62 41.7,61.9 41.9,61.9 42.2,61.9 42.4,61.9 42.6,61.9 42.9,61.8 43.1,61.8 43.3,61.8     43.6,61.8 43.8,61.8 44,61.7 44.1,61.7 44.3,61.7 44.5,61.7 44.6,61.7 44.8,61.8 45,61.8 45.1,61.8 45.3,61.8 45.4,61.8     45.6,61.8 45.7,61.8 45.8,61.8 45.9,61.8 46,61.8 46.1,61.8 46.1,61.8 46.1,61.8 46.1,61.7 46.2,61.5 46.2,61.2 46.2,60.9     46.2,60.8 46.2,60.6 46.1,60.4 46.1,60.3 46,60.1 45.9,60 45.8,59.9 45.7,59.8 45.6,59.7 45.4,59.6 45.3,59.5 45.1,59.5 45,59.4     44.8,59.4 44.6,59.3 44.5,59.3 44.1,59.3 43.6,59.3 43.2,59.3 42.7,59.4 42.3,59.4 41.8,59.4 41.4,59.5 40.9,59.5 40.5,59.6     40.1,59.7 39.7,59.7 39.4,59.8 39.1,59.9 38.8,60 38.6,60 38.5,60.1 39.5,56.8 39.8,56.6 40.1,56.5 40.4,56.4 40.8,56.3     41.1,56.2 41.5,56.2 41.8,56.1 42.2,56.1 42.6,56.1 43,56 43.4,56 43.9,56 44.3,56 44.8,56 45.3,56 45.7,56.1 46.1,56.1     46.6,56.2 47,56.3 47.5,56.4 47.9,56.6 48.4,56.8 48.8,57 49.2,57.3 49.5,57.6 49.9,57.9 50.1,58.3 50.3,58.8 50.5,59.2     50.6,59.7 50.6,60.3 50.5,60.8   "/><g><g><polyline class="st26" points="49.1,68.2 48.5,71.4 44.9,71.4 44.9,71.4 45,71.1 45,70.8 45,70.5 45.1,70.3 45.1,70.1       45.2,69.9 45.2,69.8 45.2,69.7 45.2,69.7 45,69.9 44.8,70.2 44.5,70.4 44.2,70.6 43.9,70.7 43.6,70.9 43.2,71.1 42.8,71.2       42.4,71.4 42,71.5 41.6,71.5 41.1,71.6 40.7,71.6 40.3,71.6 39.9,71.6 39.5,71.6 39.5,71.6 39,71.4 38.6,71.3 38.2,71.1       37.8,70.9 37.5,70.7 37.3,70.4 37,70.1 36.8,69.8 36.7,69.5 36.5,69.2 36.4,68.9 36.3,68.6 36.3,68.3 36.2,68 36.2,67.6       36.2,67.3 36.2,67.3 36.2,66.8 36.3,66.3 36.4,65.7 36.6,65.3 36.9,64.8 37.1,64.4 37.4,64 37.8,63.7 38.1,63.3 38.5,63.1       38.9,62.8 39.3,62.6 39.8,62.4 40.3,62.2 40.7,62.1 41.2,62 41.2,62 41.2,62 41.3,62 41.4,62 41.6,62 41.7,61.9 41.9,61.9       42.2,61.9 42.4,61.9 42.6,61.9 42.9,61.8 43.1,61.8 43.3,61.8 43.6,61.8 43.8,61.8 44,61.7 44.1,61.7 44.1,61.7 44.3,61.7       44.5,61.7 44.6,61.7 44.8,61.8 45,61.8 45.1,61.8 45.3,61.8 45.4,61.8 45.6,61.8 45.7,61.8 45.8,61.8 45.9,61.8 46,61.8       46.1,61.8 46.1,61.8 46.1,61.8 46.1,61.8 46.1,61.7 46.2,61.5 46.2,61.2 46.2,60.9 46.2,60.9 46.2,60.8 46.2,60.6 46.1,60.4       46.1,60.3 46,60.1 45.9,60 45.8,59.9 45.7,59.8 45.6,59.7 45.4,59.6 45.3,59.5 45.1,59.5 45,59.4 44.8,59.4 44.6,59.3       44.5,59.3 44.5,59.3 44.1,59.3 43.6,59.3 43.2,59.3 42.7,59.4 42.3,59.4 41.8,59.4 41.4,59.5 40.9,59.5 40.5,59.6 40.1,59.7       39.7,59.7 39.4,59.8 39.1,59.9 38.8,60 38.6,60 38.5,60.1 39.5,56.8 39.5,56.8 39.8,56.6 40.1,56.5 40.4,56.4 40.8,56.3       41.1,56.2 41.5,56.2 41.8,56.1 42.2,56.1 42.6,56.1 43,56 43.4,56 43.9,56 44.3,56 44.8,56 45.3,56 45.7,56.1 45.7,56.1       46.1,56.1 46.6,56.2 47,56.3 47.5,56.4 47.9,56.6 48.4,56.8 48.8,57 49.2,57.3 49.5,57.6 49.9,57.9 50.1,58.3 50.3,58.8       50.5,59.2 50.6,59.7 50.6,60.3 50.5,60.8 49.1,68.2     "/></g></g><polygon class="st25" points="45.6,64.5 45.6,64.5 45.6,64.4 45.5,64.3 45.3,64.3 45.2,64.3 45,64.3 44.8,64.3 44.6,64.3     44.4,64.3 44.1,64.3 43.9,64.4 43.7,64.4 43.4,64.4 43.2,64.5 43.1,64.5 42.9,64.6 42.8,64.6 42.7,64.6 42.5,64.7 42.4,64.8     42.2,64.8 42,64.9 41.8,65 41.7,65.1 41.5,65.3 41.3,65.4 41.1,65.6 41,65.8 40.8,65.9 40.7,66.2 40.7,66.4 40.6,66.6 40.6,67.1     40.7,67.5 40.8,67.8 41,68 41.2,68.1 41.4,68.2 41.6,68.3 41.9,68.3 42.3,68.3 42.7,68.2 43.1,68.2 43.4,68.1 43.7,68 44,67.9     44.2,67.7 44.4,67.6 44.6,67.4 44.7,67.3 44.9,67.1 45,66.9 45.1,66.8 45.2,66.6 45.2,66.5 45.3,66.3 45.3,66.1 45.4,65.9     45.4,65.6 45.5,65.4 45.5,65.1 45.6,64.9 45.6,64.7   "/><polygon class="st15" points="19.3,71.4 15.4,71.4 18.7,52.8 25.4,52.8 26,63.9 30.6,52.8 37.6,52.8 34.3,71.4 30.4,71.4     32.9,57.5 32.7,57.5 27,71.4 22.7,71.4 22.6,70.8 22.5,69.3 22.4,67.1 22.3,64.6 22.1,62 22,59.8 21.9,58.2 21.9,57.5 21.8,57.5     21.8,57.5 21.8,57.5 21.7,57.5 21.7,57.5 21.7,57.5 21.7,57.5 21.7,57.5   "/><g><g><polyline class="st26" points="19.3,71.4 15.4,71.4 18.7,52.8 25.4,52.8 26,63.9 30.6,52.8 37.6,52.8 34.3,71.4 30.4,71.4       32.9,57.5 32.7,57.5 27,71.4 22.7,71.4 22.7,71.4 22.6,70.8 22.5,69.3 22.4,67.1 22.3,64.6 22.1,62 22,59.8 21.9,58.2       21.9,57.5 21.9,57.5 21.8,57.5 21.8,57.5 21.8,57.5 21.7,57.5 21.7,57.5 21.7,57.5 21.7,57.5 21.7,57.5 19.3,71.4     "/></g></g><polygon class="st15" points="83.7,71.4 87.8,71.4 87.8,71.4 89.1,63.4 89.2,63.1 89.3,62.8 89.3,62.4 89.4,62.2 89.5,61.9     89.7,61.6 89.9,61.3 90,61.1 90.3,60.9 90.5,60.7 90.8,60.5 91.2,60.4 91.6,60.2 92,60.1 92.5,60.1 93,60 93.1,60 93.2,60     93.2,60 93.3,60 93.4,60.1 93.4,60.1 93.5,60.1 93.5,60.1 93.5,60 93.6,59.8 93.6,59.6 93.7,59.3 93.8,58.9 93.9,58.5 94,58.1     94.2,57.7 94.3,57.5 94.4,57.2 94.5,56.9 94.7,56.7 94.8,56.5 94.9,56.3 95,56.2 95,56.2 95,56.2 94.9,56.1 94.8,56.1 94.7,56.1     94.6,56.1 94.5,56.1 94.4,56.1 94.3,56.1 93.9,56.1 93.5,56.1 93.1,56.2 92.8,56.3 92.5,56.4 92.2,56.6 91.9,56.7 91.7,56.9     91.4,57.1 91.2,57.3 91,57.5 90.8,57.7 90.6,58 90.4,58.2 90.1,58.5 89.9,58.8 90.4,56.3 86.4,56.2 83.7,71.4   "/><g><g><polyline class="st26" points="83.7,71.4 87.8,71.4 87.8,71.4 89.1,63.4 89.1,63.4 89.2,63.1 89.3,62.8 89.3,62.4 89.4,62.2       89.5,61.9 89.7,61.6 89.9,61.3 90,61.1 90.3,60.9 90.5,60.7 90.8,60.5 91.2,60.4 91.6,60.2 92,60.1 92.5,60.1 93,60 93,60       93.1,60 93.2,60 93.2,60 93.3,60 93.4,60.1 93.4,60.1 93.5,60.1 93.5,60.1 93.5,60.1 93.5,60 93.6,59.8 93.6,59.6 93.7,59.3       93.8,58.9 93.9,58.5 94,58.1 94.2,57.7 94.2,57.7 94.3,57.5 94.4,57.2 94.5,56.9 94.7,56.7 94.8,56.5 94.9,56.3 95,56.2       95,56.2 95,56.2 95,56.2 94.9,56.1 94.8,56.1 94.7,56.1 94.6,56.1 94.5,56.1 94.4,56.1 94.3,56.1 94.3,56.1 93.9,56.1       93.5,56.1 93.1,56.2 92.8,56.3 92.5,56.4 92.2,56.6 91.9,56.7 91.7,56.9 91.4,57.1 91.2,57.3 91,57.5 90.8,57.7 90.6,58       90.4,58.2 90.1,58.5 89.9,58.8 90.4,56.3 86.4,56.2 83.7,71.4 83.7,71.4     "/></g></g><polygon class="st15" points="101.1,56.1 101.6,56.1 102,56.1 102.4,56.1 102.8,56.2 103.2,56.3 103.6,56.4 104,56.5 104.3,56.6     104.7,56.8 105,56.9 105.3,57.1 105.6,57.3 105.9,57.5 106.2,57.7 106.5,57.9 106.7,58.2 107,58.4 107.2,58.7 107.4,59     107.6,59.3 107.7,59.6 107.9,59.9 108,60.2 108.2,60.6 108.3,60.9 108.3,61.3 108.4,61.7 108.5,62 108.5,62.4 108.5,62.8     108.6,63.3 108.5,63.7 108.5,64.2 108.5,64.7 108.4,65.1 108.3,65.6 108.2,66 108.1,66.4 107.9,66.8 107.8,67.2 107.6,67.6     107.4,67.9 107.2,68.3 107,68.6 106.8,68.9 106.5,69.2 106.3,69.4 106,69.7 105.7,69.9 105.5,70.2 105.1,70.4 104.8,70.6     104.5,70.7 104.2,70.9 103.8,71 103.5,71.2 103.1,71.3 102.8,71.4 102.4,71.5 102,71.5 101.6,71.6 101.2,71.6 100.8,71.6     100.4,71.7 100,71.6 99.6,71.6 99.2,71.6 98.8,71.5 98.5,71.5 98.1,71.4 97.7,71.3 97.4,71.2 97,71 96.7,70.9 96.4,70.7     96.1,70.5 95.8,70.4 95.5,70.2 95.2,69.9 95,69.7 94.7,69.5 94.5,69.2 94.3,68.9 94.1,68.6 93.9,68.3 93.7,68 93.6,67.6     93.5,67.3 93.3,66.9 93.2,66.6 93.1,66.2 93.1,65.7 93,65.3 93,64.9 93,64.4 93,64 93,63.5 93.1,63 93.1,62.6 93.2,62.2     93.3,61.8 93.4,61.4 93.6,61 93.7,60.6 93.9,60.2 94.1,59.9 94.3,59.6 94.5,59.2 94.7,58.9 94.9,58.6 95.2,58.4 95.4,58.1     95.7,57.9 96,57.6 96.3,57.4 96.6,57.2 96.9,57 97.2,56.9 97.6,56.7 97.9,56.6 98.3,56.5 98.7,56.4 99.1,56.3 99.5,56.2     99.9,56.1 100.3,56.1 100.7,56.1   "/><g><g><polyline class="st26" points="101.1,56.1 101.1,56.1 101.6,56.1 102,56.1 102.4,56.1 102.8,56.2 103.2,56.3 103.6,56.4       104,56.5 104.3,56.6 104.7,56.8 105,56.9 105.3,57.1 105.6,57.3 105.9,57.5 106.2,57.7 106.5,57.9 106.7,58.2 107,58.4       107.2,58.7 107.4,59 107.6,59.3 107.7,59.6 107.9,59.9 108,60.2 108.2,60.6 108.3,60.9 108.3,61.3 108.4,61.7 108.5,62       108.5,62.4 108.5,62.8 108.6,63.3 108.5,63.7 108.5,63.7 108.5,64.2 108.5,64.7 108.4,65.1 108.3,65.6 108.2,66 108.1,66.4       107.9,66.8 107.8,67.2 107.6,67.6 107.4,67.9 107.2,68.3 107,68.6 106.8,68.9 106.5,69.2 106.3,69.4 106,69.7 105.7,69.9       105.5,70.2 105.1,70.4 104.8,70.6 104.5,70.7 104.2,70.9 103.8,71 103.5,71.2 103.1,71.3 102.8,71.4 102.4,71.5 102,71.5       101.6,71.6 101.2,71.6 100.8,71.6 100.4,71.7 100.4,71.7 100,71.6 99.6,71.6 99.2,71.6 98.8,71.5 98.5,71.5 98.1,71.4       97.7,71.3 97.4,71.2 97,71 96.7,70.9 96.4,70.7 96.1,70.5 95.8,70.4 95.5,70.2 95.2,69.9 95,69.7 94.7,69.5 94.5,69.2       94.3,68.9 94.1,68.6 93.9,68.3 93.7,68 93.6,67.6 93.5,67.3 93.3,66.9 93.2,66.6 93.1,66.2 93.1,65.7 93,65.3 93,64.9 93,64.4       93,64 93,64 93,63.5 93.1,63 93.1,62.6 93.2,62.2 93.3,61.8 93.4,61.4 93.6,61 93.7,60.6 93.9,60.2 94.1,59.9 94.3,59.6       94.5,59.2 94.7,58.9 94.9,58.6 95.2,58.4 95.4,58.1 95.7,57.9 96,57.6 96.3,57.4 96.6,57.2 96.9,57 97.2,56.9 97.6,56.7       97.9,56.6 98.3,56.5 98.7,56.4 99.1,56.3 99.5,56.2 99.9,56.1 100.3,56.1 100.7,56.1 101.1,56.1     "/></g></g><polygon class="st15" points="107,70.6 108.2,70.6 108.2,70.8 107.7,70.8 107.7,71.8 107.5,71.8 107.5,70.8 107,70.8   "/><g><g><polyline class="st26" points="107,70.6 108.2,70.6 108.2,70.8 107.7,70.8 107.7,71.8 107.5,71.8 107.5,70.8 107,70.8 107,70.6           "/></g></g><polygon class="st15" points="108.3,70.6 108.7,70.6 109.1,71.5 109.1,71.5 109.5,70.6 109.9,70.6 109.9,71.8 109.6,71.8     109.6,70.9 109.6,70.9 109.2,71.8 109,71.8 108.6,70.9 108.6,70.9 108.6,71.8 108.3,71.8   "/><g><g><polyline class="st26" points="108.3,70.6 108.7,70.6 109.1,71.5 109.1,71.5 109.5,70.6 109.9,70.6 109.9,71.8 109.6,71.8       109.6,70.9 109.6,70.9 109.2,71.8 109,71.8 108.6,70.9 108.6,70.9 108.6,71.8 108.3,71.8 108.3,70.6     "/></g></g><polygon class="st24" points="98,63.3 97.9,63.9 97.9,64.4 97.9,64.8 97.9,65.3 98,65.7 98.1,66 98.2,66.3 98.3,66.6 98.5,66.9     98.7,67.1 98.9,67.3 99.1,67.4 99.3,67.5 99.6,67.6 99.9,67.6 100.2,67.6 100.6,67.6 100.9,67.6 101.2,67.5 101.5,67.4     101.8,67.3 102,67.1 102.3,66.9 102.5,66.6 102.7,66.4 102.9,66 103.1,65.7 103.3,65.3 103.4,64.9 103.5,64.4 103.6,63.9     103.7,63.4 103.8,62.9 103.8,62.5 103.8,62.1 103.8,61.8 103.7,61.4 103.6,61.1 103.5,60.8 103.4,60.5 103.2,60.2 103.1,60     102.9,59.8 102.6,59.7 102.4,59.5 102.1,59.5 101.8,59.4 101.5,59.4 101.1,59.4 100.7,59.5 100.4,59.6 100,59.8 99.7,60     99.5,60.2 99.2,60.4 99,60.7 98.8,61 98.6,61.3 98.4,61.6 98.3,62 98.2,62.3 98.1,62.7 98,63   "/></g></g></svg>