<?xml version="1.0" encoding="utf-8"?>
<!-- Generator: Adobe Illustrator 16.0.0, SVG Export Plug-In . SVG Version: 6.00 Build 0)  -->
<!DOCTYPE svg PUBLIC "-//W3C//DTD SVG 1.1//EN" "http://www.w3.org/Graphics/SVG/1.1/DTD/svg11.dtd">
<svg version="1.1" id="Layer_1" xmlns="http://www.w3.org/2000/svg" xmlns:xlink="http://www.w3.org/1999/xlink" x="0px" y="0px"
	 width="258.381px" height="161.154px" viewBox="0 0 258.381 161.154" enable-background="new 0 0 258.381 161.154"
	 xml:space="preserve">
<g>
	<rect y="0.012" fill="#FFFFFF" width="258.381" height="161.13"/>
	<path fill="#00579F" d="M258.302,123.949l0.079,37.205H0.346L0,0.024L11.296,0v111.386c0,6.911,5.605,12.563,12.455,12.563H258.302
		L258.302,123.949z"/>
	<polygon fill="#00579F" points="97.858,95.719 109.296,24.995 127.582,24.995 116.145,95.719 	"/>
	<path fill="#00579F" d="M182.437,26.724c-3.608-1.43-9.328-3.01-16.403-3.01c-18.058,0-30.776,9.63-30.853,23.398
		c-0.15,10.158,9.105,15.8,16.027,19.187c7.075,3.461,9.48,5.719,9.48,8.804c-0.072,4.739-5.717,6.922-10.982,6.922
		c-7.301,0-11.213-1.126-17.158-3.762l-2.408-1.129l-2.559,15.876c4.289,1.954,12.191,3.687,20.395,3.763
		c19.188,0,31.68-9.481,31.828-24.153c0.073-8.051-4.814-14.22-15.35-19.261c-6.396-3.236-10.313-5.418-10.313-8.729
		c0.076-3.01,3.313-6.093,10.534-6.093c5.945-0.151,10.312,1.278,13.622,2.708l1.654,0.751L182.437,26.724L182.437,26.724z"/>
	<path fill="#00579F" d="M206.742,70.664c1.506-4.063,7.301-19.788,7.301-19.788c-0.076,0.151,1.503-4.138,2.406-6.771l1.278,6.094
		c0,0,3.463,16.929,4.215,20.465C219.084,70.664,210.354,70.664,206.742,70.664L206.742,70.664z M229.315,24.995H215.17
		c-4.362,0-7.676,1.278-9.558,5.868l-27.163,64.856h19.188c0,0,3.16-8.729,3.838-10.61c2.106,0,20.771,0,23.479,0
		c0.525,2.484,2.182,10.61,2.182,10.61h16.932L229.315,24.995L229.315,24.995z"/>
	<path fill="#00579F" d="M82.584,24.995L64.675,73.222l-1.957-9.781c-3.311-11.286-13.695-23.548-25.283-29.644l16.404,61.847
		h19.338l28.744-70.649H82.584L82.584,24.995z"/>
	<path fill="#FAA61A" d="M48.045,24.995H18.623l-0.301,1.429c22.951,5.869,38.151,20.015,44.396,37.019l-6.396-32.503
		C55.269,26.423,52.033,25.144,48.045,24.995L48.045,24.995z"/>
	<g>
		<polygon fill="#FFFFFF" points="170.399,134.227 176.375,134.227 173.847,152.483 176.878,152.483 176.881,152.465 
			177.099,152.418 179.419,134.228 186.06,134.181 186.459,131.173 170.804,131.237 		"/>
		<polygon fill="#FFFFFF" points="135.353,152.483 138.388,152.483 138.388,152.465 146.39,152.418 146.792,149.413 138.798,149.46 
			139.679,143.022 145.765,142.971 146.167,139.966 140.089,140.017 140.878,134.227 148.62,134.18 149.022,131.172 
			138.254,131.236 		"/>
		<polygon fill="#FFFFFF" points="106.118,152.483 109.149,152.483 109.152,152.465 117.154,152.418 117.556,149.413 
			109.563,149.46 110.442,143.022 116.529,142.971 116.931,139.966 110.851,140.017 111.642,134.227 119.384,134.18 
			119.783,131.172 109.018,131.236 		"/>
		<polygon fill="#FFFFFF" points="127.146,131.173 123.794,131.237 120.894,152.483 123.927,152.483 123.93,152.465 
			131.929,152.418 132.33,149.413 124.337,149.46 		"/>
		<path fill="#FFFFFF" d="M150.823,141.711c-0.748,6.213,2.935,11.251,8.229,11.251c1.961,0,3.864-0.688,5.528-1.875v-3.583
			c-1.429,1.449-3.254,2.346-5.151,2.346c-3.83,0-6.494-3.646-5.955-8.139c0.543-4.495,4.088-8.14,7.914-8.14
			c1.852,0,3.43,0.85,4.504,2.239l1.627-2.817c-1.459-1.585-3.455-2.535-5.756-2.535
			C156.474,130.458,151.573,135.496,150.823,141.711z"/>
		<polygon fill="#FFFFFF" points="242.545,131.238 240.13,146.523 232.75,131.238 229.798,131.238 226.371,152.483 229.405,152.419 
			229.625,152.419 231.955,135.995 239.925,152.419 242.457,152.419 245.405,131.238 		"/>
		<g>
			<path fill="#FFFFFF" d="M215.64,130.458c-5.092,0-9.805,5.038-10.525,11.253c-0.721,6.213,2.824,11.251,7.916,11.251
				c5.091,0,9.804-5.038,10.525-11.251C224.274,135.496,220.729,130.458,215.64,130.458z M221.004,141.711
				c-0.521,4.493-3.978,8.716-7.659,8.716s-6.199-4.223-5.678-8.716c0.52-4.496,3.928-8.715,7.611-8.715
				C218.961,132.996,221.526,137.216,221.004,141.711z"/>
		</g>
		<path fill="#FFFFFF" d="M196.397,131.174l-6.451,0.064l-3.163,21.245l3.03-0.064h0.004h0.22l1.112-8.987l1.634-0.004l4.894,8.991
			h3.276l-4.798-8.984C202.179,141.953,203.923,131.104,196.397,131.174z M195.06,140.816h-3.488l0.9-7.046l3.728,0.05
			C199.56,133.861,197.849,140.816,195.06,140.816z"/>
	</g>
</g>
</svg>
