<?xml version="1.0" encoding="utf-8"?>
<!-- Generator: Adobe Illustrator 21.1.0, SVG Export Plug-In . SVG Version: 6.00 Build 0)  -->
<svg version="1.1" id="Layer_1" xmlns="http://www.w3.org/2000/svg" xmlns:xlink="http://www.w3.org/1999/xlink" x="0px" y="0px"
	 viewBox="0 0 89.7 89.7" style="enable-background:new 0 0 89.7 89.7;" xml:space="preserve">
<style type="text/css">
	.st0{fill:#FFFFFF;}
</style>
<path class="st0" d="M61.7,12.1c-4.6-4.6-10.3-6.9-16.9-6.9S32.6,7.5,28,12.1c-4.6,4.6-7,10.1-7,16.6c0,3.9,2,10.5,6,19.7
	c4,9.2,7.9,17.5,11.9,25.1c4,7.5,6,11.2,6,11c0.6-1.1,1.5-2.7,2.6-4.6c1.1-2,3-5.6,5.7-11.1c2.7-5.4,5.1-10.4,7.2-14.9
	c2.1-4.5,4-9.2,5.7-14.1c1.8-4.8,2.6-8.5,2.6-11C68.7,22.2,66.4,16.7,61.7,12.1z M50,33.7c-1.4,1.4-3.2,2.2-5.2,2.2
	c-2,0-3.7-0.7-5.2-2.2c-1.4-1.4-2.2-3.2-2.2-5.2c0-2,0.7-3.7,2.2-5.1c1.4-1.4,3.2-2.1,5.2-2.1c2,0,3.7,0.7,5.2,2.1
	c1.4,1.4,2.2,3.1,2.2,5.1C52.1,30.5,51.4,32.3,50,33.7z"/>
</svg>
